<?xml version="1.0" encoding="utf-8"?><svg xmlns="http://www.w3.org/2000/svg" xmlns:xlink="http://www.w3.org/1999/xlink"><symbol viewBox="0 0 96 96" id="arrow--breadcrumbs" xmlns="http://www.w3.org/2000/svg"><path d="M12 52h62.344L52.888 73.456a4 4 0 1 0 5.657 5.656l28.283-28.284c.186-.186.352-.391.498-.609.067-.101.114-.21.172-.315.066-.124.142-.242.195-.373.057-.135.089-.275.129-.415.033-.111.076-.217.099-.331.052-.26.079-.522.079-.785l-.001-.009a4.032 4.032 0 0 0-.078-.774c-.024-.12-.069-.231-.104-.349-.039-.133-.069-.268-.123-.397-.058-.139-.136-.265-.208-.396-.054-.098-.097-.198-.159-.292a3.94 3.94 0 0 0-.501-.614L58.544 16.888a4.001 4.001 0 0 0-5.657 5.657L74.343 44H12a4 4 0 0 0 0 8z"/></symbol><symbol viewBox="0 0 459 306" id="arrow--link" xmlns="http://www.w3.org/2000/svg"><path d="M270.3 35.7l91.8 91.8H0v51h362.1l-91.8 91.8L306 306l153-153L306 0z"/></symbol><symbol viewBox="0 0 22 14.968" id="arrow--rounded" xmlns="http://www.w3.org/2000/svg"><path d="M1.57 5.983h15.09l-3.63-3.459a1.39 1.39 0 0 1-.46-1.033A1.576 1.576 0 0 1 15.23.428l6.25 5.957a1.4 1.4 0 0 1 .52 1.1 1.329 1.329 0 0 1-.51 1.083l-6.26 5.969a1.576 1.576 0 0 1-2.66-1.063 1.391 1.391 0 0 1 .46-1.034l3.63-3.458H1.57a1.5 1.5 0 1 1 0-2.999z"/></symbol><symbol viewBox="0 0 247.79 424.52" id="arrow--short" xmlns="http://www.w3.org/2000/svg"><path d="M177.73 211.76L1 35.03 36.03 0l211.76 211.76-1 1-34.03 34.03L35.03 424.52 0 389.49l177.73-177.73z"/></symbol><symbol viewBox="0 0 117.47 153.01" id="bottles" xmlns="http://www.w3.org/2000/svg"><path stroke="currentColor" fill="none" stroke-width="5" d="M49.89 82.84c0 3.22-10.61 5.83-23.7 5.83S2.5 86.06 2.5 82.84m47.39 35.74c0 3.22-10.61 5.83-23.7 5.83S2.5 121.8 2.5 118.58"/><path stroke="currentColor" fill="none" stroke-width="5" d="M16.78 7.06c.94.37-.9 3.44-1 7.85 0 1.11 2 2.31 1.93 3.57-.87 13.79-4.22 35.09-4.22 35.09a8.93 8.93 0 0 1-2.35 4.68c-4 4.25-8.61 10-8.61 16.31v66.49a5.9 5.9 0 0 0 2.05 4.52c2.63 2.21 8.52 4.94 21.64 4.94s19-2.73 21.64-4.94a5.88 5.88 0 0 0 2.06-4.52V74.56c0-6.34-4.59-12.09-8.64-16.35a9 9 0 0 1-2.4-4.78s-3.19-21.41-4.37-35c-.11-1.31 1.89-2.55 1.82-3.69C36 10.62 34 7.8 34.55 7.49M9.6 71.86a9.4 9.4 0 0 0-.21 1.53m6.88-11.88a9.59 9.59 0 0 0-3.83 4.83"/><path stroke="currentColor" fill="none" stroke-width="5" d="M35.33 6.06c0 1.84-4.22 3.34-9.42 3.34s-9.42-1.5-9.42-3.34 4.22-3.33 9.42-3.33 9.42 1.49 9.42 3.33zM16.59 30.31s8.06 4.1 18.74 0M15.56 43.34s8.94 4.55 20.8 0M115 82.61c0 3.22-10.61 5.83-23.69 5.83s-23.7-2.61-23.7-5.83M115 118.35c0 3.22-10.61 5.83-23.69 5.83s-23.7-2.61-23.7-5.83"/><path stroke="currentColor" fill="none" stroke-width="5" d="M81.87 6.83c.93.37-.9 3.44-1 7.85 0 1.11 2 2.31 1.92 3.57-.89 13.75-4.24 35.09-4.24 35.09A9 9 0 0 1 76.19 58c-4 4.25-8.61 10-8.61 16.31v66.49a5.87 5.87 0 0 0 2.06 4.52c2.62 2.21 8.51 4.94 21.64 4.94s19-2.73 21.64-4.94a5.89 5.89 0 0 0 2-4.52V74.33c0-6.34-4.59-12.09-8.64-16.35a8.89 8.89 0 0 1-2.39-4.78s-3.19-21.41-4.37-35c-.12-1.31 1.88-2.55 1.81-3.69-.26-4.11-2.31-6.93-1.74-7.24M74.68 71.63a12.26 12.26 0 0 0-.21 1.53m6.89-11.87a9.53 9.53 0 0 0-3.84 4.82"/><path stroke="currentColor" fill="none" stroke-width="5" d="M100.41 5.83c0 1.85-4.22 3.34-9.42 3.34s-9.42-1.49-9.42-3.34S85.79 2.5 91 2.5s9.41 1.5 9.41 3.33zM81.68 30.08s8 4.1 18.73 0M80.64 43.11s8.94 4.55 20.81 0"/></symbol><symbol viewBox="0 0 157.04 107.83" id="bread" xmlns="http://www.w3.org/2000/svg"><path stroke="currentColor" fill="none" stroke-width="5" d="M54.64 59.19l.83 23.88c0 3.81-2.79 6.61-6.35 6.3L10.47 86a7.82 7.82 0 0 1-6.74-7.43l-1.22-25a6.48 6.48 0 0 1 3.22-6.17c4.5-2.41 13-6 22.76-5.13 8.16.7 15.6 4.34 20.55 7.38m-45.35-.43S32 17.51 59.36 5.32"/><path stroke="currentColor" fill="none" stroke-width="5" d="M105.92 25.76v-3.34c2.39-4.92-1.66-10.43-6.08-13.13a46.85 46.85 0 0 0-19.68-6.48c-9.77-.84-15.24 0-21.28 2.71m-6.75 83.31s3.61-1.27 10.45-7.15m.79-37.22c17.87-16.59 32.45-25.72 32.45-25.72M57.36 50.21l2-1.91m-45.79 5.63a7.17 7.17 0 0 0-2.7 6.36m10.85-8.77a15.7 15.7 0 0 0-2.34.18m93.69 52.76c10.2-9.31 29.57-24.81 39.94-35.64a5.79 5.79 0 0 0 1.51-4.41l-.81-13.6c2.39-4.92-1.66-10.43-6.08-13.13-4.7-2.88-16.51-10.21-42-6.63a14.94 14.94 0 0 0-7 2.86 317.56 317.56 0 0 0-34.6 30.84m55.03 1.08a226 226 0 0 1 24.6-18.7"/><path stroke="currentColor" fill="none" stroke-width="5" d="M109.5 105.31L70.85 102a7.79 7.79 0 0 1-6.74-7.43v-.24a30 30 0 0 0-.11-7.66l-.43-3 .16-5.06a37.07 37.07 0 0 0-.73-8.74l-.07-.37c-.13-2.67.85-5.64 3.21-6.18 8.23-1.86 7-6.22 22.77-5.13 7 .5 10.11.61 12.5 3.23 3.39 3.73 8.15 4.13 10.67 5.87 2.2 1.5 4.25 5.07 3 7.31v.08a57.7 57.7 0 0 1 .42 16.1l-.5 3.43a18 18 0 0 0 .52 3.62l.29 1.18c.07 3.81-2.75 6.6-6.31 6.3z"/><path stroke="currentColor" fill="none" stroke-width="5" d="M76.66 80.93s9.84-9.18 23 1.46c.05 0-8.8 7.78-23-1.46z"/></symbol><symbol viewBox="0 0 135.98 143.4" id="cake" xmlns="http://www.w3.org/2000/svg"><path stroke="currentColor" fill="none" stroke-width="5" d="M69 101.34c25.73 5.89 54.69 12.59 62.24 13.78a1.88 1.88 0 0 0 2.26-1.63c0-8.28-.06-40.22 0-47.46a5 5 0 0 0-.78-2.73L101.1 22.89A11.49 11.49 0 0 0 91 18.54q-1.33.11-2.91.27m-26.97 5.06c-12 3.4-24.83 8.82-34.84 17.46A3.49 3.49 0 0 0 25 44v22.82m107.96.14L25.39 44.29"/><path stroke="currentColor" fill="none" stroke-width="5" d="M133.45 82.63c-7.56-1.65-11.53 2.64-19.09 1s-6.25-6.53-13.8-8.18-8.87 3.21-16.42 1.55-6.48-5.75-13.83-8.18c-5.37-1.82-13.09-2-16.73 4.18m5.84 10.73l71.27 15.6M71.69 20a11 11 0 0 0 5.07-2.74c2.22-2.28 6.34-2.87 9.57.32C91 22.21 90.17 38.4 76 39.37h0c-14.22 1-16.06-15.22-11-20.29 4.68-4.72 7.73-2 10.69-1.22m3.31 4.5s3.38.17 2.83 3.41m-7.24-8.22a35.05 35.05 0 0 1 2.89-15"/><path stroke="currentColor" fill="none" stroke-width="5" d="M41.28 60.29c-5.72-3.53 3.32 2.22-8.09 6.26-9.06.37-16.1 3.1-16.1 6.41a2.93 2.93 0 0 0 .85 2c-4.14 1.58-6.68 3.72-6.68 6.07a4 4 0 0 0 1.13 2.67c-3.47 1.71-5.51 3.82-5.51 6.11a5 5 0 0 0 1.74 3.57c-3.85 1.86-6.12 4.2-6.12 6.72 0 6.42 14.7 11.63 32.84 11.63s32.84-5.21 32.84-11.63c0-2.52-2.27-4.86-6.13-6.77a5.06 5.06 0 0 0 1.75-3.57c0-2.29-2-4.4-5.51-6.11A4.08 4.08 0 0 0 59.42 81c0-2.35-2.54-4.49-6.68-6.07a2.91 2.91 0 0 0 .84-2c0-2.59-4.33-4.83-10.56-5.86 1.13-2.26 1.33-4.88-1.74-6.78z"/><path stroke="currentColor" fill="none" stroke-width="5" d="M8.48 107.67a102.89 102.89 0 0 0 6.15 27.41s6.57 5.82 20.71 5.82c10.21 0 16.53-3 19.25-4.72a4.25 4.25 0 0 0 1.92-2.72 99.22 99.22 0 0 0 5.91-26.52m-16.26 25.32a55.07 55.07 0 0 0 3.26-14m-14.18 14.56l.06-13.57M24 132.26c-1.89-7.29-2.85-14-2.85-14m1.21-36.12l2.37-2.67m31.92 18.05l2.6 1.64m-19.57 1.97l-3 1.9m1.93-24.89l3 1.9m-11.73 9.61l3 1.9m13.43-.61l3-.68m-25.98 10.6l-1.95-2.47M7.42 91.77s.89 3.09 5.62 3.09M59.42 81s-.33 3.34-5.8 3.34m-9.94-19.22s.22 1.36-2 3.85"/></symbol><symbol viewBox="0 0 100.353 100.353" id="calendar" xmlns="http://www.w3.org/2000/svg"><path d="M32.286 42.441h-9.762a1.5 1.5 0 0 0-1.5 1.5v9.762a1.5 1.5 0 0 0 1.5 1.5h9.762a1.5 1.5 0 0 0 1.5-1.5v-9.762a1.5 1.5 0 0 0-1.5-1.5zm-1.5 9.762h-6.762v-6.762h6.762v6.762zm24.268-9.762h-9.762a1.5 1.5 0 0 0-1.5 1.5v9.762a1.5 1.5 0 0 0 1.5 1.5h9.762a1.5 1.5 0 0 0 1.5-1.5v-9.762a1.5 1.5 0 0 0-1.5-1.5zm-1.5 9.762h-6.762v-6.762h6.762v6.762zm23.566-9.762h-9.762a1.5 1.5 0 0 0-1.5 1.5v9.762a1.5 1.5 0 0 0 1.5 1.5h9.762a1.5 1.5 0 0 0 1.5-1.5v-9.762a1.5 1.5 0 0 0-1.5-1.5zm-1.5 9.762h-6.762v-6.762h6.762v6.762zM32.286 64.677h-9.762a1.5 1.5 0 0 0-1.5 1.5v9.762a1.5 1.5 0 0 0 1.5 1.5h9.762a1.5 1.5 0 0 0 1.5-1.5v-9.762a1.5 1.5 0 0 0-1.5-1.5zm-1.5 9.762h-6.762v-6.762h6.762v6.762zm24.268-9.762h-9.762a1.5 1.5 0 0 0-1.5 1.5v9.762a1.5 1.5 0 0 0 1.5 1.5h9.762a1.5 1.5 0 0 0 1.5-1.5v-9.762a1.5 1.5 0 0 0-1.5-1.5zm-1.5 9.762h-6.762v-6.762h6.762v6.762zm23.566-9.762h-9.762a1.5 1.5 0 0 0-1.5 1.5v9.762a1.5 1.5 0 0 0 1.5 1.5h9.762a1.5 1.5 0 0 0 1.5-1.5v-9.762a1.5 1.5 0 0 0-1.5-1.5zm-1.5 9.762h-6.762v-6.762h6.762v6.762z"/><path d="M89 13.394h-9.907c-.013 0-.024.003-.037.004V11.4c0-3.268-2.658-5.926-5.926-5.926s-5.926 2.659-5.926 5.926v1.994H56.041V11.4c0-3.268-2.658-5.926-5.926-5.926s-5.926 2.659-5.926 5.926v1.994H33.025V11.4c0-3.268-2.658-5.926-5.926-5.926s-5.926 2.659-5.926 5.926v1.995l-.015-.001h-9.905a1.5 1.5 0 0 0-1.5 1.5V92.64a1.5 1.5 0 0 0 1.5 1.5H89a1.5 1.5 0 0 0 1.5-1.5V14.894a1.5 1.5 0 0 0-1.5-1.5zM70.204 11.4c0-1.614 1.312-2.926 2.926-2.926s2.926 1.312 2.926 2.926v8.277c0 1.613-1.312 2.926-2.926 2.926s-2.926-1.312-2.926-2.926V11.4zM50.115 8.474a2.93 2.93 0 0 1 2.926 2.926v8.277a2.93 2.93 0 0 1-2.926 2.926 2.929 2.929 0 0 1-2.926-2.926v-4.643c.004-.047.014-.092.014-.141s-.01-.094-.014-.141V11.4a2.929 2.929 0 0 1 2.926-2.926zM24.173 11.4a2.929 2.929 0 0 1 2.926-2.926 2.93 2.93 0 0 1 2.926 2.926v8.277a2.93 2.93 0 0 1-2.926 2.926 2.929 2.929 0 0 1-2.926-2.926V11.4zM87.5 91.14H12.753V16.394h8.405l.015-.001v3.285c0 3.268 2.659 5.926 5.926 5.926s5.926-2.658 5.926-5.926v-3.283h11.164v3.283c0 3.268 2.659 5.926 5.926 5.926s5.926-2.658 5.926-5.926v-3.283h11.163v3.283c0 3.268 2.658 5.926 5.926 5.926s5.926-2.658 5.926-5.926V16.39c.013 0 .024.004.037.004H87.5V91.14z"/></symbol><symbol viewBox="0 0 64 64" id="calendar--bold" xmlns="http://www.w3.org/2000/svg"><path d="M49.6 54H14.4C12 54 10 52 10 49.6V17.3c0-2.4 1.6-4.4 3.7-4.4h2.2v2.9h-2.2c-.3 0-.7.6-.7 1.5v32.3c0 .8.7 1.5 1.5 1.5h35.2c.8 0 1.5-.7 1.5-1.5V17.3c0-.9-.5-1.5-.7-1.5h-2.2v-2.9h2.2c2 0 3.7 2 3.7 4.4v32.3C54 52 52 54 49.6 54"/><path d="M20.3 18.8c-.8 0-1.5-.7-1.5-1.5v-5.9c0-.8.7-1.5 1.5-1.5s1.5.7 1.5 1.5v5.9c-.1.8-.7 1.5-1.5 1.5m23.4 0c-.8 0-1.5-.7-1.5-1.5v-5.9c0-.8.7-1.5 1.5-1.5s1.5.7 1.5 1.5v5.9c0 .8-.7 1.5-1.5 1.5m-19-5.9h14.6v3H24.7zm-11.8 8.8h38.2v3H12.9zm32.3 5.9h2.9v2.9h-2.9zm-5.9 0h3v2.9h-3zm-5.8 0h2.9v2.9h-2.9zm-5.9 0h2.9v2.9h-2.9zm-5.9 0h3v2.9h-3zm23.5 5.9h2.9v2.9h-2.9zm-5.9 0h3v2.9h-3zm-5.8 0h2.9v2.9h-2.9zm-5.9 0h2.9v2.9h-2.9zm-5.9 0h3v2.9h-3zm-5.8 0h2.9v2.9h-2.9zm29.3 5.8h2.9v3h-2.9zm-5.9 0h3v3h-3zm-5.8 0h2.9v3h-2.9zm-5.9 0h2.9v3h-2.9zm-5.9 0h3v3h-3zm-5.8 0h2.9v3h-2.9zm23.4 5.9h3v2.9h-3zm-5.8 0h2.9v2.9h-2.9zm-5.9 0h2.9v2.9h-2.9zm-5.9 0h3v2.9h-3zm-5.8 0h2.9v2.9h-2.9z"/></symbol><symbol fill="none" stroke="currentColor" stroke-linecap="round" stroke-linejoin="round" stroke-width="2" viewBox="0 0 24 24" id="call" xmlns="http://www.w3.org/2000/svg"><path d="M15.05 5A5 5 0 0 1 19 8.95M15.05 1A9 9 0 0 1 23 8.94m-1 7.98v3a2 2 0 0 1-2.18 2 19.79 19.79 0 0 1-8.63-3.07 19.5 19.5 0 0 1-6-6 19.79 19.79 0 0 1-3.07-8.67A2 2 0 0 1 4.11 2h3a2 2 0 0 1 2 1.72 12.84 12.84 0 0 0 .7 2.81 2 2 0 0 1-.45 2.11L8.09 9.91a16 16 0 0 0 6 6l1.27-1.27a2 2 0 0 1 2.11-.45 12.84 12.84 0 0 0 2.81.7A2 2 0 0 1 22 16.92z"/></symbol><symbol viewBox="0 0 83.63 29.47" id="caption--1" xmlns="http://www.w3.org/2000/svg"><path fill-rule="evenodd" d="M6 13.88a9.81 9.81 0 0 0 1.76 0A20.11 20.11 0 0 1 9 11.4a16.86 16.86 0 0 1 3.91-5.47c-.17-.57-1.31-1.34-1.83-1.63a5 5 0 0 0-2.88-.63c-3.29.25-7.44 4.2-6.58 7.46.45 1.71 2.29 2.65 4.35 2.75M14.14 9c-.1-.2-.26-1.54-.42-1.46a28 28 0 0 0-2.32 4.87c1.12-.29 3.57-2.73 4.41-3.63s2.8-4.21 2-5.75c-.75-.17-1.3.48-1.67.86-2.26 2.37-1 1.53-.84 3.37C15.32 8 14.94 9 14.14 9zm-.25 8.82a15.26 15.26 0 0 0 .76 4.62c.71-.15 1.85-3.56 2.08-4.44.39-1.55.88-5.11-.06-5.51-1.78-.8-2.81 2.75-2.78 5.28zM53.72 6.14a5.1 5.1 0 0 1 2.33-4 4.45 4.45 0 0 1 5.38.52c.07.06.4.37.29.51a22.77 22.77 0 0 0-3.1 5.51c-.5 0-2.57.38-3.54-.43a3 3 0 0 1-1.36-2.11zm-3 10.59c1.43.1 2.11-3.7 2.12-4.66a2.54 2.54 0 0 0-2 1.73 3.28 3.28 0 0 0-.1 2.93zm8.32.16c1.37.36 2.28-1.92 2.25-3.5a1.75 1.75 0 0 0-.54-1.47c-.69 0-.81.08-1 .66a8.49 8.49 0 0 0-.43 1.29 8.33 8.33 0 0 0-.26 3.02zm4.33-11.53c-.59 0-.54-.65-.83-1.06-.1.09-1.33 3-1.34 3.17 1.66-.7 5.76-5.7 4-6.31-.56-.2-1 .48-1.29.78-.58.69-.72.54-.48 1.56a2.3 2.3 0 0 1-.06 1.86zm-.91-3.24a4.18 4.18 0 0 1-.68-.44A6.33 6.33 0 0 0 57 .6a4.86 4.86 0 0 0-2 .92c-2.22 1.67-3.27 5.22-1 7.23 1.15 1 2.12.94 4 .86-.12.56-.46 1.23-.64 1.85-.38 1.28-1.08 4.44-2.33 4.66-1.1-1 .62-4.4.79-5.63l-2.43.3a1.44 1.44 0 0 0-.27.59c-1.12-.38-1.86-.82-3.58.62a6.59 6.59 0 0 0-1.66 6.37c.66 1.8 1.88 1.64 3 .34.32-.37.51-.84.83-1 .38.91.62 2.31 2.57.74 1-.79 2.08-2.33 2.31-2.45 0 .9-.26 1.82.46 2.37s1.79.13 2.44-.19a8.21 8.21 0 0 0 3.27-2.83 10 10 0 0 0 1-4.94c-.37-1.66-1.85-.85-2.76 0-.29.27-.42.61-.82.78a15.16 15.16 0 0 1 .46-1.88c.5-1.89.25.06 3.68-3.33a12.2 12.2 0 0 0 2-2.65c1.46-2.85-.49-4.41-2.8-2.35-.42.31-.75.94-1.06 1.14zM33.09 20.53c.95-.07 1.3-1.14 1.55-1.9a10.77 10.77 0 0 0 .59-2.77c-1.75.05-3.08 2.94-2.14 4.67zM41 13.85a19.27 19.27 0 0 1-2 4.35c-.36.59-.57 1-1.06 1a.41.41 0 0 1-.1-.23 8.76 8.76 0 0 1 .41-2.78 19.65 19.65 0 0 1 .78-2.67c0-.32-.3-.17-1.17-.08a8.12 8.12 0 0 1-1.29.17c-.09.33-.12.43-.21.77-1-.4-2.16-1.22-4.26 1a13 13 0 0 0-.95 1.42c-.58.93-1.51 3.54-2.26 3.09s.39-4.42.73-5.14c-.12-.35-.67 0-1.15 0a8.77 8.77 0 0 1-1.37.18l-.13.28c.07.73-1.23 5.89-2.14 5.48-.77-.8.4-4.75.82-5.48-.2-.35-.16-.12-1.17 0-.23 0-.49.11-.68.14s-.43.06-.7.12c-.65 1.34-.84 3.59-1.83 4.73-.09.43-.71 1.12-1.24 1.07-.25-.53-.14-.93-.49-1.36-1.43 0-3.88 3.2-2.12 4.43 1.15.8 2.7-1.07 3.37-1.89.43-.53.54-.89.87-1.09 0 1.34 0 3.15 1.75 2.17 1.15-.64 1.87-1.89 2.23-2.13.32.52.1 3.26 2.14 1.4a25.75 25.75 0 0 0 1.88-2.13c.26-.32.62-.89 1-1 0 1.23.45 3 1.64 3 .74 0 1.62-.94 2-1.5.2-.27.22-.5.52-.56.21.5.24 1 .86 1.23 1.78.54 3.64-2.57 3.89-2.9L39 21.72a17 17 0 0 0 2.24-1.38c.63-.39.52-.31.72-1.12a3.61 3.61 0 0 1 .46-1.22 38.26 38.26 0 0 1 2.09 3.62 20.39 20.39 0 0 0 2.42 3.31c1.6 1.86 5.08 4.06 7.54 4a4.75 4.75 0 0 0-1.12-.49 12 12 0 0 1-2.88-1.66 12.7 12.7 0 0 1-2.85-3.17c-1.6-2.51-1.77-4.12-2.82-6.28-.77-1.59-1.37-.72-1.88-.6A3.41 3.41 0 0 1 44.65 15c.21.34.37.91 1 .93.81 0 1.62-1.24 1.83-2s0-.87-.26-1.42c-2.14-.41-3.57 2.51-4.16 2.89a16 16 0 0 1 1.33-4.1 4.86 4.86 0 0 1 2.52-2.47c-.25-.53-1.69.1-2.14.29-.63.26-2.58 1.4-2.84 2.08zm29.84-7.74a29.44 29.44 0 0 1-1.52 4.5c-.28.75-1.39 3.9-2.41 3.42-.8-.81.71-4 .74-5-.24 0-2.33.2-2.46.25-.68 1.23-1.74 6.59-1.14 7.72 1.07 2 4.19-2.84 4.52-3.06 0 .84-.59 2.38-.51 3 .65-.26 1.5-.78 2.17-1.1s.6-.15.75-.9a5.76 5.76 0 0 1 .31-1.4c.3.12.13.15.48 1a19.21 19.21 0 0 0 1.56 2.91A18.6 18.6 0 0 0 76 20.69a17.25 17.25 0 0 0 3.37 2.55 13.88 13.88 0 0 0 4.24 1.67v-.45c-1.36-.78-1.94-.58-4.08-2.21-6.22-4.75-4.49-12.32-7.22-10.36l-.2.15a.87.87 0 0 1-.35.19c.1-.68 1.12-1.76 1.88-1.65l.34.73A2.58 2.58 0 0 0 76.6 9c-.25-3.56-4.5 1.2-4.49 1.46 0-.51 1.42-5.62 1.54-5.93a6.66 6.66 0 0 1 2.26-3.37l.92-.44c.17-.12.17-.04.22-.26a3.44 3.44 0 0 0-1.8.23 9.22 9.22 0 0 0-1.9 1.1l-.89.66a1 1 0 0 0-.33.41c-.1.19-.13.3-.22.5s-.16.35-.25.57zM67 4.2c-1.79.87-1.32 4.25.38 3.65 1.89-.66 1.4-4.52-.38-3.65zm-52.9.3c-.29-.11-.14 0-.41-.26a6.12 6.12 0 0 0-1.76-1.06A7.6 7.6 0 0 0 6.33 3a11.51 11.51 0 0 0-3.68 2 8.13 8.13 0 0 0-2.4 3.29 1.66 1.66 0 0 0-.25.92C-.11 11.5.32 12.85 1.8 14c1.68 1.33 3 1.17 5.29 1.1-.77 2.19-1.09 2.25-1.54 4.96A10.05 10.05 0 0 0 6 25.69a3.2 3.2 0 0 0 4.42 1.6 10.52 10.52 0 0 0 3.81-2.82 40.45 40.45 0 0 0 2.1 3.65C18 30.21 19 29.6 19 28.15c-.34-.32-.76-.61-1.17-1-.77-.73-2.78-3.26-2.75-3.75A14 14 0 0 1 16 22c.29-.48.52-.88.81-1.38 1.26-2.18 4.31-8 .86-9.39a2.65 2.65 0 0 0-3 1c-1.77 2.23-1.77 6.55-1.19 9.43a15.08 15.08 0 0 0 .47 1.73l-1 .31c-1.72.43-2.71.46-3.42-1.74a9.87 9.87 0 0 1 .12-4.23 31.84 31.84 0 0 1 1-3.64c.3-1 .3-.72 1.1-1.16 3.11-1.71 7-4.74 8-8.09.46-1.23.52-4.16-2-3.28a5.9 5.9 0 0 0-1.74 1A25.39 25.39 0 0 0 14.1 4.5z"/></symbol><symbol viewBox="0 0 164.94 57.78" id="caption--2" xmlns="http://www.w3.org/2000/svg"><path d="M150.16 24.32c-.95 2.41-2.28 4.21-3.4 6.55-.28.61-1.18 1.59-1.61 1.64a.6.6 0 0 1-.62-.58 23.5 23.5 0 0 1 .67-7 11.88 11.88 0 0 0 .27-3.51 2.39 2.39 0 0 0-2.73-2.11c-2.14.24-3.4 3-3.83 4.73a27 27 0 0 1-1.08 4.32c-.12.17-.32.33-.46.51-.93-.87-.7-3.88-1.83-3.75s-1.72 2.85-2.1 2.9-.77-2.57-.73-2.49a2.92 2.92 0 0 0-2.56-2.05c-.14 0-.46.3-.44.43 0 .49.21.93.29 1.39.06.29.54 3.25.78 3.87.32.9 1.25 2.51 2.41 2.38.38-.05.56-.4.69-1.18.17-1.3.47-3.22 1.51-4.11.11.18.34.34.39.53.28 1.17.37 3.16 1.59 3 1.51-.17 1.88-3.52 2.3-5.1a7.1 7.1 0 0 1 2.84-4.33.4.4 0 0 1 .18-.07.3.3 0 0 1 .36.26 13.7 13.7 0 0 1-.29 2.49c-.21 2.16-.53 4.33-.64 6.5a3.67 3.67 0 0 0 0 .74c.19 1.59 1.65 3.36 3.16 3.19 1.35-.16 2.13-1.92 2.78-3.39s2.24-4.77 2.34-4.84c.14-.7.24-1-.22-1h-.05M131.2 27.1c-.89 2.18-3.58 4.46-5.6 4.7a1.36 1.36 0 0 1-1.53-1.38c-.25-2.16-.41-5 1.93-6a1.35 1.35 0 0 1 .29-.09.93.93 0 0 1 1 .85c0 .37-.27.71-.23 1.06 0 .08.29.4.46.39.54-.07.63-.95.6-1.17a2.57 2.57 0 0 0-3-2.09c-1.94.23-3.85 1.92-3.43 5.54.24 2.05 1.33 4.39 4 4.08s5.26-3.89 6.07-5.43c.24-.36.06-.56-.53-.38zm-16.1.31c-1.69 1.46-3.44 2.89-5.19 4.3h-.1a.43.43 0 0 1-.49-.41c.26-2.52 1.46-6.27 4.48-6.62.79-.09 1.43.46 1.58 1.76a1.23 1.23 0 0 1-.25 1.05zm1.9 19.48a6.28 6.28 0 0 1-3.24 4.56 2.71 2.71 0 0 1-1 .36c-1.08.13-1.67-.74-1.86-2.38a4.84 4.84 0 0 1 .06-1.57 39.92 39.92 0 0 1 4.59-11.34c.09-.14.36-.2.57-.31a4.59 4.59 0 0 1 .36 1.49c.07.62.15 1.27.22 1.92a16.76 16.76 0 0 1 .45 2.43 15.76 15.76 0 0 1-.15 4.84zm6-19.06c-1.55 1.52-2.82 1.86-4.43 3.36a.78.78 0 0 1-.44.21c-.24 0-.45-.14-.49-.46s0-.46 0-.68c-.2-1.7-1.34-3-1.77-4.66-.32-1.14-1.16-1.53-2.41-1.39a5 5 0 0 0-4 2.76 10.11 10.11 0 0 0-1.19 4.57 1.53 1.53 0 0 0 1.54 1.46c.92-.1 3.12-2.36 4.56-3.64a.59.59 0 0 1 .26-.12c.59-.07.61 2.48 1 3.45a3.81 3.81 0 0 1 .2.77 3.94 3.94 0 0 1-.79 2.58 54.36 54.36 0 0 0-2.81 4.84c-1.44 2.84-2.64 5.47-2.23 9a3.27 3.27 0 0 0 3.5 3.06 2.15 2.15 0 0 0 .8-.23c4.63-2.28 5.6-5.22 4.78-12.26-.23-2-.52-4-.74-6-.3-2.51 1.58-3.52 3.71-5 1.46-.96 1.29-1.93 1-1.62zm-23.23 1.61c0-1.53-.32-4.89 1.85-5.25s2.81 3.48 2.89 4.92c0 1.23 0 5.13-2.47 5.1-1.83-.03-2.04-3.48-2.27-4.77zm-1.47.31c-.07 2 1.76 5.78 4.36 5.26s2.65-4.49 2.34-6.42-1.06-5.16-3.57-5.11c-3.08.08-3.16 4.11-3.13 6.27zm-5 5.86a1 1 0 0 1-1-.35.45.45 0 0 1-.19-.25 11.65 11.65 0 0 1-1.16-4.32c0-.39.24-.58.57-.53.89.09 1.11.39 1.8 1.37a5.83 5.83 0 0 1 .68 2.19c.09.81 0 1.59-.74 1.89zm-2-9.81c.24-1.2.49-2.54.83-3.84a7 7 0 0 1 1.71-3.43 3.2 3.2 0 0 1 .78-.61 1.8 1.8 0 0 1 .73-.3 1.28 1.28 0 0 1 1.39 1.1 1.31 1.31 0 0 1 0 .65c-.74 3.81-1.74 5.32-4.95 8.75-.09.12-.32.34-.54.31s-.25-.52-.25-.73c0-.58.14-1.17.28-1.9zm1.39 4c-.6-.48-.88-.75-.26-1.28 3.73-3.5 5.34-7.76 5.1-9.76a1.51 1.51 0 0 0-.35-.89 3.72 3.72 0 0 0-3.09-1 3.57 3.57 0 0 0-1.4.47 5.5 5.5 0 0 0-2.33 3.22 30.24 30.24 0 0 0-1.46 8.16 6.85 6.85 0 0 0 .06 1.22 5.3 5.3 0 0 0 .2 1.05 22.81 22.81 0 0 0 .57 2.34 6.52 6.52 0 0 0 1.62 2.6 2.4 2.4 0 0 0 2.23.64c1.25-.14 1.22-2.52 1-3.53a4.45 4.45 0 0 0-1.91-3.24zm-7.61 21.75c-.19 1.47-1.32 3.71-2.57 3.86-.91.1-1.24-1.28-1.29-1.77a13.63 13.63 0 0 1 .84-6.85c.66-1.64 1.93-5.26 2.61-5.34s.62 1.38.65 1.65c.06.46.08.92.11 1.35v.06a51 51 0 0 1-.35 7.04zM89.8 32c-1.43 1.83-2.82 3.71-4.21 5.6a1 1 0 0 1-.66.46c-.87.1-1.77-1.05-1.78-1.19a27.56 27.56 0 0 1 .75-2.93 17.18 17.18 0 0 0 .45-4.37 3.52 3.52 0 0 0-3.89-2.86c-2.08.24-3.8 2.57-4 4.73a8.88 8.88 0 0 0 .09 1.47c.1.89.33 2 .82 1.9s.28-1.78.3-2.6a4.15 4.15 0 0 1 2.1-4.08A.8.8 0 0 1 80 28c1.05-.12 1.4.79 1.48 1.44a1.34 1.34 0 0 1 0 .49c-.23 1.31-.49 2.6-.81 3.87-.28 1.1-1.16 2.71-1 3.62a1.88 1.88 0 0 0 1.86 1.43c.46 0 1.11-.76 1.55-.81a1.38 1.38 0 0 1 1.27 1.11 1.53 1.53 0 0 1-.22.87c-1.84 3.75-4.09 8.36-3.63 12.3.2 1.78.9 3.8 2.33 3.64s3.07-2.52 3.28-4.54a37.34 37.34 0 0 0 .3-8.19 14.63 14.63 0 0 0-.6-2.85 2.3 2.3 0 0 1-.1-.35 2.74 2.74 0 0 1 .29-1.52c1.1-1.8 4.51-6.62 4.8-6.66v-.24a5.72 5.72 0 0 0-.12-.56 3.49 3.49 0 0 1 0-.44A5.09 5.09 0 0 1 89.8 32zm-16.15 7.15c-.29.52-.56 1.29-1.15 1.36s-1-.62-1.11-1.54c-.25-2.13.3-4.46.06-6.51-.07-.65-.54-2.1-1.76-2-1 .11-1.54 1.57-2.08 2.32-.94 1.31-2.81 4.35-3.48 4.43-.43 0-.71-.44-.75-.85-.21-1.78.55-3.73.35-5.43a.59.59 0 0 0-.56-.53.79.79 0 0 0-.48.27 35.18 35.18 0 0 0-.6 6.61 1.69 1.69 0 0 0 1.64 1.45c.84-.1 1.57-1.14 2.08-1.88 1-1.35 2.2-3.71 3-4.13a32.19 32.19 0 0 0 0 4.18c.21 1.76 1.22 5.3 3.33 5.06 1.08-.13 1.48-1.13 1.92-2 1.05-2 2.1-4 3.18-6.08a6.49 6.49 0 0 1 .37-.57c-.06-.32-.13-.64-.22-1-1.17 2.33-2.39 4.58-3.74 6.84zm-20.22-4.33c0-1.52-.32-4.88 1.85-5.24s2.81 3.47 2.9 4.91c0 1.23 0 5.14-2.48 5.1-1.83-.03-2.07-3.48-2.27-4.77zm-1.43.31c-.07 2 1.76 5.79 4.36 5.27s2.64-4.5 2.3-6.4-1.06-5.16-3.57-5.11C52 28.94 51.93 33 52 35.13zm-5.91-2.57c1-.14 1.49.54 1.61 1.57.26 2.24-1.33 6.2-3.75 7.1-1.25.48-2 0-2.08-1a3.22 3.22 0 0 1 .04-1.23c.12-.62.24-1.15.36-1.8.28-1.55 3.22-4.57 3.78-4.64zm-6.86 16.82c0 .36.05.68.09 1A13.87 13.87 0 0 0 41 55.71a4.09 4.09 0 0 0 2.29 2.06.57.57 0 0 0 .3 0 1.3 1.3 0 0 0 0-.41 7.21 7.21 0 0 1-2.27-4.47c-.08-.43-.13-.88-.18-1.32a23.48 23.48 0 0 1-.14-3.89c0-1.21.08-2.42.18-3.66.06-.88.19-1.86 1.17-1.67 3.47-.07 5-2.67 5.76-4.85a8.86 8.86 0 0 0 .57-4.25 2.22 2.22 0 0 0-2.43-1.88 3.24 3.24 0 0 0-1.34.53 12.54 12.54 0 0 0-1.38 1.1c-.34.34-1.47 1.7-1.65 1.78a8 8 0 0 0-.15-2.23c-.29-1.09-.6-1.43-1.69-1.58-.55 0-.8.17-.62.73a9.19 9.19 0 0 1 .46 1.86 5 5 0 0 1 0 1.09c-.22 2.82-.39 5.6-.53 8.41-.1 2.3-.21 4.61-.12 6.32zm.06-11c-1 2.11-2.06 4.21-3.13 6.27a2.94 2.94 0 0 1-1.31 1.22c-.89.1-1.08-1.57-1.18-2.43a33.57 33.57 0 0 1 0-4.49c-.06-1-.08-1.88-.19-2.77-.21-1.81-.78-3.44-2.37-3.26-1.38.16-2.91 2-3.59 3.48s-1.26 3.11-2.07 4.6a.7.7 0 0 1-.23-.31 39.35 39.35 0 0 1-1-4.22 3.47 3.47 0 0 0-2.41-2.87 1.2 1.2 0 0 0-.53-.07.58.58 0 0 0-.46.71.18.18 0 0 0 0 .13 16.3 16.3 0 0 1 1.12 4c.39 2.17 1.83 6.08 3.15 5.92.84-.09 1-.88 1.06-1.46.11-2.09 1.16-3.91 2.1-5.69.59-1.08 1.83-3.08 3-3.22.38 0 .55.29.6.67a9.46 9.46 0 0 1-.09 1.41 31.83 31.83 0 0 0-.17 6c.26 2.21.71 5.41 3.49 5.09 1.11-.13 1.35-.89 2.13-2.63s1.51-3.51 2.32-5.22c.09-.17.7-1.5.77-1.59s-.09-.13-.18-.12h-.15a.14.14 0 0 1-.12-.1c-.02.23-.52.84-.56.95zm81.94-35.12a1 1 0 0 1 .64-.43c.51-.06.88.31.95.9.09.78-1.37 2.13-2.37 2.68h-.13c-.05 0-.2-.06-.22-.2a5.54 5.54 0 0 1 1.13-2.95zm4.5 4.07c-.39.7-2.43 4.52-4.32 4.74-1.24.15-1.66-1.53-1.8-2.8-.09-.78-.27-1.55.68-1.91 1.55-.56 3.46-2.7 3.36-3.59a2.05 2.05 0 0 0-2.14-1.69c-3.43.4-3.71 4.61-3.63 6.44.33 2.83 1.83 4.44 3.53 4.24s4.25-3.67 4.82-5.3c.21-.59-.23-.54-.5-.13zm-16 .44c0-1.52-.32-4.88 1.86-5.25s2.81 3.48 2.89 4.92c0 1.23 0 5.14-2.47 5.1-1.87-.03-2.11-3.48-2.32-4.77zm-1.46.31c-.07 2 1.76 5.78 4.36 5.26s2.65-4.49 2.34-6.42-1.06-5.16-3.58-5.11c-3.12.08-3.2 4.11-3.16 6.27zm-4.42 10.74a.83.83 0 0 1-.47.19c-1 .13-1.43-2.4-1.61-4 0-.32-.07-.62-.1-.83-.33-2.89.19-5.69-.15-8.66-.11-.91-1.26-2.31-2.17-2.21s-.86 2.05-.83 3.05c.15 3.65.14 2.83-3.09 3.76a10.52 10.52 0 0 1-1.12.21c-1.92.22-2.15.33-2.39-.76-.16-.7-.22-1.89-1.19-1.78-.57.06-.36 2.12-.07 4.55 0 .4.09.83.14 1.24.1.86 0 1.45.72 1.45 1.29-.15 0-2.9 1.65-3.23a14 14 0 0 0 4.62-1.36c.73-.09.78.78.91 1.48.47 2.63.63 5.89 2.6 7.79a2.56 2.56 0 0 0 2 .91 2.7 2.7 0 0 0 2-1.7 32.24 32.24 0 0 0 2.7-6.08 21.44 21.44 0 0 1 1.1-3.25c.08-1.62-.38-.66-.54-.37-.9 2.26-2.9 8.07-4.75 9.6zm-17.3 2A.83.83 0 0 1 86 21c-1.05.13-1.43-2.4-1.61-4 0-.32-.07-.62-.09-.83-.34-2.89.18-5.69-.16-8.66-.11-.91-1.26-2.31-2.17-2.21s-.86 2.05-.83 3.05c.15 3.65.14 2.83-3.09 3.75a8.53 8.53 0 0 1-1.12.22c-1.92.22-2.15.33-2.39-.76-.16-.7-.22-1.89-1.19-1.78-.57.06-.35 2.12-.07 4.55 0 .4.09.83.14 1.24.1.86 0 1.45.72 1.45 1.29-.15 0-2.9 1.65-3.23a14 14 0 0 0 4.62-1.36c.73-.09.78.78.91 1.48.47 2.63.63 5.89 2.6 7.79a2.56 2.56 0 0 0 2.05.91A2.7 2.7 0 0 0 88 21a32.24 32.24 0 0 0 2.69-6.11 21.44 21.44 0 0 1 1.1-3.25c.08-1.62-.38-.66-.54-.37-.89 2.22-2.89 8.03-4.74 9.56zM69.58 9.26a1 1 0 0 1 .63-.43c.51-.06.88.31 1 .9.09.78-1.36 2.13-2.37 2.68 0 0-.07 0-.13.05s-.2-.06-.21-.2a5.54 5.54 0 0 1 1.08-3zm4.49 4.07c-.38.7-2.43 4.53-4.32 4.74-1.24.15-1.65-1.53-1.8-2.8-.09-.78-.26-1.55.68-1.91 1.55-.56 3.46-2.7 3.36-3.59a2.06 2.06 0 0 0-2.14-1.69c-3.43.4-3.7 4.61-3.63 6.44.33 2.83 1.83 4.44 3.53 4.24s4.25-3.67 4.83-5.29c.2-.6-.23-.55-.51-.14zM61.6 18.78a1.06 1.06 0 0 1-1-.35.54.54 0 0 1-.19-.25 11.75 11.75 0 0 1-1.16-4.33.48.48 0 0 1 .57-.53c.88.09 1.11.39 1.8 1.38a5.83 5.83 0 0 1 .72 2.18c.09.81-.03 1.59-.74 1.9zM59.61 9c.25-1.21.5-2.55.84-3.85a6.82 6.82 0 0 1 1.71-3.45 2.78 2.78 0 0 1 .78-.61 1.7 1.7 0 0 1 .73-.31 1.27 1.27 0 0 1 1.38 1.1 1.31 1.31 0 0 1 0 .65c-.74 3.81-1.77 5.32-4.95 8.76a.75.75 0 0 1-.54.31c-.2-.12-.25-.52-.28-.74.1-.58.2-1.17.33-1.86zM61 13c-.6-.47-.88-.74-.26-1.28 3.72-3.5 5.33-7.76 5.1-9.76A1.54 1.54 0 0 0 65.5 1a3.76 3.76 0 0 0-3.1-1 3.57 3.57 0 0 0-1.4.49 5.52 5.52 0 0 0-2.33 3.23 29.41 29.41 0 0 0-1.46 8.15 7 7 0 0 0 .06 1.23 5.33 5.33 0 0 0 .2 1 22.81 22.81 0 0 0 .57 2.34 6.39 6.39 0 0 0 1.62 2.6 2.38 2.38 0 0 0 2.23.64c1.24-.14 1.21-2.52 1-3.53A4.47 4.47 0 0 0 61 13zm-2.32 1.48c-.95 2.4-2.27 4.2-3.4 6.55-.28.6-1.18 1.58-1.61 1.63a.6.6 0 0 1-.62-.58 23.53 23.53 0 0 1 .67-7 11.53 11.53 0 0 0 .28-3.55 2.39 2.39 0 0 0-2.73-2.11c-2.13.24-3.39 3-3.83 4.74a26.87 26.87 0 0 1-1.08 4.31c-.12.17-.32.33-.46.52-.92-.88-.7-3.89-1.83-3.76s-1.72 2.86-2.1 2.9-.76-2.57-.73-2.49a2.93 2.93 0 0 0-2.56-2.05c-.14 0-.46.3-.44.43 0 .49.21.93.29 1.39.07.29.55 3.25.78 3.88.33.89 1.25 2.5 2.41 2.37.38-.05.56-.39.69-1.17.17-1.31.47-3.23 1.52-4.12.1.18.34.34.38.53.28 1.17.37 3.16 1.59 3 1.51-.18 1.88-3.53 2.3-5.11a7.1 7.1 0 0 1 2.8-4.31.45.45 0 0 1 .18-.07.31.31 0 0 1 .36.26 13.6 13.6 0 0 1-.29 2.49c-.21 2.16-.53 4.33-.64 6.5a4.54 4.54 0 0 0 0 .74c.19 1.59 1.65 3.36 3.17 3.19 1.34-.16 2.12-1.92 2.77-3.39s2.24-4.77 2.34-4.84c.14-.7.24-1-.22-1 .04.05.04.05.02.08zm-18.91 2.81c-.9 2.18-3.59 4.47-5.61 4.7a1.36 1.36 0 0 1-1.53-1.38c-.25-2.16-.41-5 1.93-6a1.55 1.55 0 0 1 .29-.09 1 1 0 0 1 1 .85c0 .37-.28.71-.24 1.06 0 .08.3.41.46.39.54-.07.63-1 .6-1.17a2.56 2.56 0 0 0-2.95-2.09c-1.94.23-3.85 1.93-3.43 5.54.24 2.05 1.33 4.39 3.95 4.08s5.26-3.89 6.07-5.43c.22-.44.04-.61-.54-.46zm-16.31-5.87a.81.81 0 0 1-.19-1c.56-1.32 1.06-2.61 1.66-3.88A4.43 4.43 0 0 1 27 4.33a.74.74 0 0 1 1.16.49A3.92 3.92 0 0 1 28 7.14c-.33.91-.77 1.84-1.16 2.73-.11.29 0 .46.24.63a.6.6 0 0 0 .93-.19c.38-1.17.85-2.34 1.15-3.5a4.83 4.83 0 0 0 0-1.47c-.16-1.55-1-2-2.6-1.62a3.85 3.85 0 0 0-1.1.65 9.08 9.08 0 0 0-2.67 4.11c-.34 1.08-.55 2.28-1.56 3a.75.75 0 0 0-.33.75 1.42 1.42 0 0 0 .33.73.62.62 0 0 0 1.07 0 4.67 4.67 0 0 0 .51-.77c.19-.32.33-.23.55 0a14.56 14.56 0 0 1 2.84 6.51 5.74 5.74 0 0 1-.56 3.24c-.06.14-.17.35-.34.37a.56.56 0 0 1-.44-.25 4.68 4.68 0 0 1-.74-1.91 3.77 3.77 0 0 1 .3-1.92 5.45 5.45 0 0 0 .51-1.73c.07-.15-.16-.45-.34-.54a.85.85 0 0 0-.68 0 5.58 5.58 0 0 0-1.57 2.2 1.7 1.7 0 0 0-.14.73 5.13 5.13 0 0 0 1.69 3.94 2.39 2.39 0 0 0 1.64.71c.46-.06.86-.4 1.18-1.13a7.23 7.23 0 0 0 .45-3.66 14 14 0 0 0-3.7-7.33zm-9.84 7.51c0-1.52-.33-4.88 1.85-5.24s2.81 3.47 2.89 4.91c0 1.23.05 5.14-2.47 5.1-1.83-.03-2.07-3.48-2.27-4.77zm-1.47.31c-.07 2 1.76 5.79 4.36 5.27s2.65-4.5 2.34-6.43-1.06-5.16-3.58-5.08c-3.08.05-3.15 4.08-3.12 6.24zm-1.45-8.47h-.11v-.76c-.29-2.48-1.87-3.67-4.17-3.4A7.18 7.18 0 0 0 2.8 7.77a9.76 9.76 0 0 0-2.72 8.41 11.74 11.74 0 0 0 3.05 6.87c1.25 1.36 3.44 2.8 5.11 2.61a2.72 2.72 0 0 0 1.85-1.06c1-1.3 2.87-2.8 2.94-4.34-.1.07-.23.14-.27.22-1.2 1.51-2.68 4.06-4.68 4.29-2.45.29-5.19-4.21-5.58-7.58a14.58 14.58 0 0 1 1-6.62c.5-1.4 1.83-3.12 3.32-3.29S9.5 8.74 9.7 10.42c.05.46-.08.94 0 1.42 0 .25.19.64.59.59s.3-1.13.41-1.66z"/><path d="M159.57 22.49c0-1.52-.32-4.88 1.86-5.25s2.81 3.48 2.89 4.92c0 1.23.05 5.14-2.47 5.1-1.84 0-2.07-3.48-2.28-4.77m-1.46.31c-.07 2 1.76 5.78 4.35 5.26s2.66-4.49 2.35-6.42-1.07-5.16-3.58-5.11c-3.08.08-3.16 4.11-3.12 6.27zm-5 5.86a1 1 0 0 1-1-.35.41.41 0 0 1-.19-.25 11.46 11.46 0 0 1-1.16-4.32c0-.38.23-.57.57-.53.88.09 1.11.39 1.8 1.38a5.83 5.83 0 0 1 .72 2.18c.05.81-.08 1.59-.78 1.89zm-2-9.8c.25-1.21.5-2.55.84-3.85a6.74 6.74 0 0 1 1.71-3.42 2.78 2.78 0 0 1 .78-.61 1.65 1.65 0 0 1 .73-.31 1.28 1.28 0 0 1 1.38 1.1 1.31 1.31 0 0 1 0 .65c-.73 3.81-1.76 5.32-4.94 8.76-.1.12-.32.33-.54.3s-.25-.51-.28-.73c.06-.58.21-1.17.29-1.89zm1.4 4c-.61-.48-.88-.74-.26-1.28 3.72-3.5 5.33-7.76 5.1-9.76a1.51 1.51 0 0 0-.35-.89 3.74 3.74 0 0 0-3.1-1 3.57 3.57 0 0 0-1.39.46 5.59 5.59 0 0 0-2.34 3.22 30.24 30.24 0 0 0-1.46 8.16 7.89 7.89 0 0 0 .06 1.22A6 6 0 0 0 149 24a22.81 22.81 0 0 0 .57 2.34 6.35 6.35 0 0 0 1.62 2.6 2.38 2.38 0 0 0 2.23.64c1.24-.14 1.21-2.52 1-3.53a4.47 4.47 0 0 0-1.94-3.2z"/></symbol><symbol viewBox="0 0 64 64" id="category--aqua" xmlns="http://www.w3.org/2000/svg"><path d="M44 23v-3c0-3.4-2.3-6.6-4.4-7.8L37 10.5V3c0-1.1-.9-2-2-2h-6c-1.1 0-2 .9-2 2v7.4l-2.5 1.7C22.3 13.4 20 16.6 20 20v3c0 1.609.92 2.755 2 3.398v7.776c-1.181.399-2 1.482-2 2.826v4c0 .784.285 1.474.75 2a2.988 2.988 0 0 0-.75 2v4c0 .784.285 1.474.75 2a2.988 2.988 0 0 0-.75 2v4c0 3.5 2.5 6 6 6h12c3.5 0 6-2.5 6-6v-4c0-.784-.285-1.474-.75-2 .464-.526.75-1.216.75-2v-4c0-.784-.285-1.474-.75-2 .464-.526.75-1.216.75-2v-4c0-1.344-.819-2.427-2-2.826v-7.776c1.08-.643 2-1.789 2-3.398zM35 3v3h-6V3h6zM22 20c0-2.6 1.9-5.2 3.6-6.2l3.4-2.3V8h6v3.5l3.5 2.4c1.7.9 3.5 3.5 3.5 6.1v3c0 1.4-1.4 2-2 2H24c-.6 0-2-.6-2-2v-3zm0 17c0-.6.4-1 1-1h18c.6 0 1 .4 1 1v4c0 .6-.4 1-1 1H23c-.6 0-1-.4-1-1v-4zm20 8v4c0 .6-.4 1-1 1H23c-.6 0-1-.4-1-1v-4c0-.6.4-1 1-1h18c.6 0 1 .4 1 1zm0 12c0 2.4-1.6 4-4 4H26c-2.4 0-4-1.6-4-4v-4c0-.6.4-1 1-1h18c.6 0 1 .4 1 1v4zm-2-23H24v-7h16v7z"/><path d="M26.5 16.9c.9-.7 3-2 3-2l-1.1-1.7s-2.1 1.3-3 2C23.9 16.3 23 18.1 23 20h2c0-1.3.6-2.5 1.5-3.1zM23 21h2v2h-2z"/></symbol><symbol viewBox="0 0 64 64" id="category--boxesconser" xmlns="http://www.w3.org/2000/svg"><path d="M51.667 46.784a4.09 4.09 0 0 0 .504-3.713l-2.818 1.027c.143.441.105 1.061-.884 1.5l-1.146.513v-.642h-3.346v.638l-1.146-.509c-.989-.439-1.026-1.059-.884-1.5l-2.818-1.027a4.09 4.09 0 0 0 .504 3.713 4.061 4.061 0 0 0-1.182 2.663l-.101 1.595h2.933l.999 2.062v.51a2.667 2.667 0 0 0 2.665 2.665h1.406a2.667 2.667 0 0 0 2.665-2.665v-.51l.999-2.062h2.933l-.101-1.595a4.056 4.056 0 0 0-1.182-2.663zm-5.649 5.63v.864h-.736v-.864l-2.013-4.152.708-.169v.377h3.346v-.418l.717.192-2.022 4.17z"/><path d="M45.65 28.691c-3.143 0-6.375.29-9.192.891V11.123c0-4.554-9.052-6.628-17.463-6.628S1.532 6.569 1.532 11.123v33.423c0 4.554 9.052 6.628 17.463 6.628 3.143 0 6.375-.29 9.191-.891v2.593c0 4.555 9.052 6.629 17.463 6.629s17.463-2.074 17.463-6.629V35.32c.001-4.555-9.051-6.629-17.462-6.629zM18.995 7.495c9.395 0 14.463 2.575 14.463 3.628 0 .052-.034.153-.137.293-.17.233-.529.571-1.229.96-.989.549-2.313 1.021-3.868 1.395-2.593.624-5.829.98-9.23.98-5.442 0-10.461-.91-13.098-2.375-1.12-.622-1.365-1.115-1.365-1.252.001-1.054 5.07-3.629 14.464-3.629zm0 40.679c-9.395 0-14.463-2.575-14.463-3.628V15.049c.205.112.446.212.671.318.186.087.356.179.554.262.264.111.559.21.844.313.208.075.402.156.622.227.306.099.64.186.967.277.226.063.439.132.675.19.345.086.714.159 1.077.236.242.051.471.109.72.156.378.071.777.128 1.17.189.256.04.501.086.763.122.414.056.847.097 1.275.142.259.027.508.062.771.085.489.043.994.069 1.497.098.216.012.424.032.642.041a52.01 52.01 0 0 0 4.427 0c.275-.012.54-.036.811-.052.445-.026.895-.049 1.329-.087.306-.027.596-.066.895-.099.385-.041.776-.078 1.149-.128.309-.042.599-.096.899-.144.346-.055.7-.104 1.033-.167.29-.055.559-.121.84-.181.321-.069.651-.133.958-.21.267-.066.509-.144.764-.216.295-.083.6-.161.878-.251.237-.077.447-.163.671-.245.268-.098.547-.191.797-.295.203-.085.377-.179.567-.268.221-.104.458-.203.66-.312v15.36c-3.141 1.088-5.272 2.706-5.272 4.91v11.865c-2.332.568-5.403.989-9.191.989zm41.118 4.702c0 1.053-5.068 3.629-14.463 3.629-9.396 0-14.463-2.576-14.463-3.629V39.245c.181.098.395.186.591.28.213.102.411.207.641.303.24.1.508.19.765.283.092.034.185.066.275.1.139.053.275.106.424.155.287.093.601.174.905.259.246.069.478.143.734.207.3.075.62.138.936.205l.104.023c.253.054.494.114.756.163.379.071.779.129 1.174.19.254.039.497.086.757.121.423.057.865.099 1.303.145.25.026.49.06.744.082.496.043 1.007.07 1.517.099.209.012.411.031.623.04a51.999 51.999 0 0 0 4.428 0c.211-.009.413-.029.622-.04.51-.028 1.022-.056 1.517-.099.254-.022.495-.056.744-.082.438-.046.88-.088 1.303-.145.26-.035.503-.082.757-.121.394-.061.795-.119 1.173-.19.262-.049.504-.11.758-.164.349-.074.705-.144 1.037-.227.258-.064.491-.139.738-.208.303-.085.616-.166.902-.258.248-.08.468-.171.702-.256.256-.094.523-.182.762-.282.23-.096.43-.203.643-.305.195-.093.408-.181.588-.279v13.632zm-1.366-16.303c-2.638 1.466-7.656 2.376-13.098 2.376-3.385 0-6.605-.353-9.192-.972-1.142-.273-2.146-.602-3-.972a10.517 10.517 0 0 1-.906-.432c-1.12-.622-1.365-1.115-1.365-1.253 0-.41.778-1.051 2.272-1.681.795-.336 1.8-.665 3-.958 2.333-.569 5.404-.99 9.192-.99 9.395 0 14.463 2.575 14.463 3.628 0 .138-.245.631-1.366 1.254z"/><path d="M36.458 33.12v3.272c1.727.648 4.532 1.355 8.565 1.355 3.209 0 7.194-.447 12.029-1.728l-.768-2.9c-12.154 3.218-18.281.789-19.826.001zm-5.585-20.781l-.768-2.9c-14.183 3.754-20.179-.187-20.238-.228l-1.731 2.45c.193.138 3.484 2.404 10.708 2.404 3.209.001 7.195-.447 12.029-1.726zm-2.054 10.073l-.249-.774-.784-.214c-2.422-.664-5.079-.118-7.684 1.577-.281.183-.559.383-.834.59-1.35-.159-4.087-.132-5.963 2.218l-.855 1.072 2.05 1.963c-1.11 1.749-1.925 3.605-2.279 5.332l-.928.855c-1.157.155-2.82.811-4.003 2.624l-.959 1.47 3.856 1.729 1.896 3.777 1.427-1.023c1.763-1.264 2.346-2.958 2.448-4.122l.806-.969c1.713-.43 3.531-1.322 5.23-2.501l2.056 1.968 1.033-.9c2.262-1.973 2.174-4.701 1.958-6.045.198-.288.388-.577.561-.87 1.571-2.663 1.992-5.346 1.217-7.757zM11.324 38.075c.025-.008.05-.016.073-.021l.107.103-.18-.082zm1.588 1.517l-.086-.171.104.1a7.276 7.276 0 0 0-.018.071zm12.106-10.949c-2.149 3.641-6.537 6.495-9.37 7.05l-.524.103-.774.931-.23-.221.894-.824.079-.521c.439-2.902 3.045-7.303 6.647-9.646 1.116-.726 2.719-1.483 4.412-1.347.224 1.699-.461 3.335-1.134 4.475z"/></symbol><symbol viewBox="0 0 64 64" id="category--bread" xmlns="http://www.w3.org/2000/svg"><path d="M53.895 9.81h-43.79C4.534 9.81 0 14.343 0 19.915v6.737a10.01 10.01 0 0 0 2.992 7.152c.952.945 1.499 2.359 1.499 3.876v8.027c0 4.971 4.043 9.013 9.013 9.013h37.972c4.43 0 8.033-3.603 8.033-8.032v-8.753c0-1.647.604-3.188 1.701-4.339A10.022 10.022 0 0 0 64 26.652v-6.737C64 14.343 59.466 9.81 53.895 9.81zm-4.022 2.378a.233.233 0 0 1 .22-.133h1.353c.072 0 .123.021.137.032 1.23 1.099 1.497 2.582.812 4.533-.014.039-.047.179-.234.153-.181-.007-.216-.13-.227-.171-.393-1.423-1.08-2.825-2.044-4.167a.226.226 0 0 1-.017-.247zm-10.546 0a.23.23 0 0 1 .219-.133H40.9c.073 0 .124.021.137.032 1.23 1.099 1.497 2.582.813 4.532-.014.039-.033.18-.234.154-.181-.007-.216-.13-.227-.171-.394-1.423-1.08-2.825-2.044-4.167a.223.223 0 0 1-.018-.247zM21.96 52.476h-8.456v.001a6.775 6.775 0 0 1-6.767-6.768v-8.028c0-2.112-.788-4.106-2.162-5.47a7.782 7.782 0 0 1-2.329-5.559v-6.737c0-4.333 3.526-7.86 7.86-7.86H26.68a5.889 5.889 0 0 1 5.881 5.881v8.715a7.78 7.78 0 0 1-2.328 5.558c-1.395 1.384-2.163 3.14-2.163 4.944v9.211c0 3.37-2.74 6.112-6.11 6.112zm39.794-25.824a7.803 7.803 0 0 1-2.171 5.399c-1.496 1.57-2.32 3.661-2.32 5.887v8.753a5.791 5.791 0 0 1-5.787 5.786H27.64a8.326 8.326 0 0 0 2.675-6.111v-9.209c0-1.202.532-2.393 1.499-3.351a10.018 10.018 0 0 0 2.992-7.154v-8.715c0-2.314-.977-4.4-2.534-5.881h4.815a2.453 2.453 0 0 0 .435 1.69c.808 1.126 1.382 2.288 1.703 3.455a2.477 2.477 0 0 0 2.408 1.819 2.438 2.438 0 0 0 2.338-1.656c.707-2.018.643-3.815-.148-5.309h3.81a2.464 2.464 0 0 0 .435 1.69c.809 1.126 1.382 2.288 1.704 3.455a2.445 2.445 0 0 0 2.407 1.819 2.437 2.437 0 0 0 2.339-1.656v-.001c.703-2.008.641-3.795-.137-5.283 4.105.254 7.373 3.667 7.373 7.837v6.736z"/><path d="M52.772 33.389H42.667a1.123 1.123 0 1 0 0 2.246h10.105a1.123 1.123 0 1 0 0-2.246zm-14.597 0H35.93a1.123 1.123 0 1 0 0 2.246h2.246a1.123 1.123 0 1 0-.001-2.246zm-25.592 6.969l1.684-1.684a1.122 1.122 0 1 0-1.588-1.588l-1.684 1.684a1.122 1.122 0 1 0 1.588 1.588zm8.293-7.65a1.122 1.122 0 0 0 .682-2.017l-1.895-1.443a1.122 1.122 0 1 0-1.362 1.786l1.895 1.443c.204.155.443.231.68.231zm-7.494 12.941a1.121 1.121 0 0 0-1.573.214 1.121 1.121 0 0 0 .212 1.572l1.895 1.443c.203.155.443.229.679.229.339 0 .674-.152.894-.444a1.121 1.121 0 0 0-.212-1.572l-1.895-1.442zm8.947-3.972l-2.283.679a1.122 1.122 0 0 0 .321 2.2c.105 0 .213-.016.321-.046l2.283-.679a1.123 1.123 0 0 0-.642-2.154zM7.898 20.148l1.684-1.684a1.122 1.122 0 1 0-1.588-1.588L6.31 18.56a1.122 1.122 0 1 0 1.588 1.588zm2.694 6.733l-1.895-1.443a1.122 1.122 0 0 0-1.361 1.786l1.895 1.443a1.121 1.121 0 0 0 1.573-.213 1.12 1.12 0 0 0-.212-1.573zm17.687 1.331a1.122 1.122 0 0 0 .919-1.294l-.396-2.349a1.122 1.122 0 1 0-2.212.372l.396 2.349a1.122 1.122 0 0 0 1.293.922zm-9.238-5.988a1.13 1.13 0 0 0-1.397-.757l-2.282.678a1.124 1.124 0 0 0 .641 2.154l2.283-.678c.593-.178.932-.803.755-1.397zm6.042-4.74l-2.221-.862a1.125 1.125 0 0 0-.813 2.095l2.221.862a1.124 1.124 0 0 0 .813-2.095z"/></symbol><symbol viewBox="0 0 64 64" id="category--cakes" xmlns="http://www.w3.org/2000/svg"><path d="M59.028 23.668H43.829c7.471-6.684 8.652-16.729 8.668-16.875.003-.025-.002-.049 0-.074a1.527 1.527 0 0 0-.013-.308 1.862 1.862 0 0 0-.077-.298 1.393 1.393 0 0 0-.07-.153 1.434 1.434 0 0 0-.07-.128c-.009-.014-.014-.03-.024-.043-.022-.033-.051-.059-.075-.089-.022-.028-.039-.059-.064-.085-.01-.011-.022-.018-.032-.028a1.234 1.234 0 0 0-.116-.101c-.041-.034-.081-.07-.125-.099-.033-.022-.069-.038-.103-.057-.054-.03-.107-.061-.164-.084-.054-.022-.11-.034-.166-.049-.042-.011-.082-.027-.125-.034a1.486 1.486 0 0 0-.298-.023l-.021-.002C37.727 5.58 31.558 13.36 29.163 20.51c-2.026-4.669-6.437-9.871-16.058-10.217l-.026-.002-.035-.002c-.022 0-.045.005-.067.006a1.46 1.46 0 0 0-.238.02l-.039.009a1.54 1.54 0 0 0-.259.076l-.052.023a1.51 1.51 0 0 0-.441.297c-.017.017-.038.029-.054.046-.013.014-.021.03-.033.044a1.38 1.38 0 0 0-.106.142c-.026.039-.052.077-.075.118-.009.016-.021.029-.029.046-.018.036-.027.073-.042.109-.018.043-.036.086-.05.13-.018.06-.029.12-.039.18-.007.04-.016.078-.02.118a1.528 1.528 0 0 0 0 .214c.001.026-.003.052 0 .078l.004.03.001.008c.058.474.917 6.774 5.368 11.684H4.971A4.035 4.035 0 0 0 .94 27.698v11.02c0 1.771 1.031 3.291 2.516 4.033v14.613a1.5 1.5 0 0 0 1.5 1.5h54.086a1.5 1.5 0 0 0 1.5-1.5V31.517c1.473-.604 2.517-2.064 2.517-3.818a4.035 4.035 0 0 0-4.031-4.031zM45.679 8.833c-2.839 2.34-6.656 5.775-10.381 10.047a1.5 1.5 0 0 0 2.262 1.972c4.08-4.68 8.353-8.373 11.155-10.607-1.139 3.909-3.823 9.907-9.909 13.424h-7.363c1.098-4.889 4.384-12.49 14.236-14.836zm-30.427 6.12c1.829 1.289 4.207 3.244 6.225 5.835a1.497 1.497 0 0 0 2.105.261 1.5 1.5 0 0 0 .261-2.105 30.456 30.456 0 0 0-3.834-4.05c4.352 2.096 6.302 5.832 7.174 8.774h-5.85c-3.485-2.481-5.232-6.09-6.081-8.715zm42.291 35.144h-7.538a1.5 1.5 0 0 0 0 3h7.538v2.768H6.457v-2.768h14.1a1.5 1.5 0 1 0 0-3h-14.1v-6.972a4.527 4.527 0 0 0 3.531-4.407v-1.903a1.86 1.86 0 0 1 3.719 0v1.567c0 2.68 2.18 4.86 4.86 4.86s4.86-2.181 4.86-4.86v-4.255a3.432 3.432 0 0 1 3.427-3.428 3.432 3.432 0 0 1 3.428 3.428V48.91a4.192 4.192 0 0 0 4.188 4.188 4.192 4.192 0 0 0 4.188-4.188V35.695a3.879 3.879 0 0 1 3.875-3.875h15.01v18.277z"/></symbol><symbol viewBox="0 0 64 64" id="category--chees" xmlns="http://www.w3.org/2000/svg"><path d="M20.966 27.443c1.337 0 2.568.613 3.377 1.681l2.392-1.812a7.18 7.18 0 0 0-5.769-2.87c-3.988 0-7.233 3.245-7.233 7.233 0 3.988 3.245 7.233 7.233 7.233v-3a4.237 4.237 0 0 1-4.233-4.233 4.238 4.238 0 0 1 4.233-4.232zm8.107 12.664c-3.555 0-6.447 2.893-6.447 6.447s2.892 6.447 6.447 6.447 6.447-2.893 6.447-6.447-2.892-6.447-6.447-6.447zm0 9.895c-1.901 0-3.447-1.547-3.447-3.447s1.546-3.447 3.447-3.447 3.447 1.547 3.447 3.447-1.546 3.447-3.447 3.447zm15.479-27.054c-3.382 0-6.133 2.751-6.133 6.133s2.751 6.133 6.133 6.133 6.134-2.751 6.134-6.133-2.752-6.133-6.134-6.133zm0 9.267c-1.728 0-3.133-1.406-3.133-3.133s1.405-3.133 3.133-3.133 3.134 1.406 3.134 3.133-1.407 3.133-3.134 3.133zm1.658 9.306c-2.104 0-3.816 1.713-3.816 3.817s1.712 3.816 3.816 3.816 3.816-1.712 3.816-3.816-1.712-3.817-3.816-3.817zm0 4.633a.817.817 0 1 1 .002-1.634.817.817 0 0 1-.002 1.634z"/><path d="M60.572 35.215h1.5V17.694L29.56 1.891l-.371.012C9.336 2.553 2.18 17.366 1.886 17.997l-.142.302v14.824l1.5-.001a2.89 2.89 0 0 1 2.057.853 2.89 2.89 0 0 1 .852 2.057 2.913 2.913 0 0 1-2.91 2.91h-1.5v22.51h12.708v-1.5c0-.805.655-1.46 1.46-1.46a1.46 1.46 0 0 1 1.459 1.46v1.5h44.7V43.916h-1.5c-2.398 0-4.351-1.952-4.351-4.351s1.955-4.35 4.353-4.35zM28.92 4.915l25.135 12.217H5.894C8.55 13.275 15.534 5.49 28.92 4.915zm30.152 41.847v11.689H20.113c-.618-1.724-2.267-2.96-4.2-2.96s-3.583 1.236-4.201 2.96H4.744V41.749a5.922 5.922 0 0 0 4.41-5.718 5.87 5.87 0 0 0-1.731-4.178 5.877 5.877 0 0 0-2.679-1.54V20.132h54.328v12.236c-3.336.695-5.851 3.658-5.851 7.197s2.515 6.502 5.851 7.197z"/></symbol><symbol viewBox="0 0 64 64" id="category--conserv" xmlns="http://www.w3.org/2000/svg"><path fill="none" d="M29.023 25.721l-2.191-1.292-1.145 1.166a1.91 1.91 0 0 1-2.17.405c-.668-.303-1.07-.939-1.105-1.654a5.681 5.681 0 0 0 .794 7.526 5.746 5.746 0 0 0 8.107-.359 5.683 5.683 0 0 0 .557-6.999 1.924 1.924 0 0 1-2.847 1.207z"/><path fill="#FFF" d="M25.007 22.719l.607-.619a5.63 5.63 0 0 0-.574.184l-.033.435z"/><path d="M22.763 19.845a.658.658 0 0 0-.546.545 8.62 8.62 0 0 1 1.055-.608c-.171.022-.324.033-.509.063z"/><path fill="none" d="M22.763 19.845a.658.658 0 0 0-.546.545 8.62 8.62 0 0 1 1.055-.608c-.171.022-.324.033-.509.063zm2.34 1.629l-.062.811-.033.435.607-.619.751-.765-.163-.198c-.157-.069-.693-.257-1.82-.209l.72.545zm-1.831-1.692zm5.538 2.911l-.237-.57-.391-.941.212-.433-1.413.867.558.328zm-4.063 19.151a8.794 8.794 0 0 0-3.229-.603 8.77 8.77 0 0 0-3.413.675l3.238 1.417 3.404-1.489zm6.566-10.331a5.683 5.683 0 0 0 .557-6.999 1.924 1.924 0 0 1-2.847 1.207l-2.191-1.292-1.145 1.166a1.91 1.91 0 0 1-2.17.405c-.668-.303-1.07-.939-1.105-1.654a5.681 5.681 0 0 0 .794 7.526 5.746 5.746 0 0 0 8.107-.359z"/><path fill="none" d="M25.361 42.117l.032.858c.008.211.042 2.102-1.207 3.398-.714.741-1.67 1.116-2.843 1.116s-2.13-.376-2.843-1.116c-1.249-1.296-1.216-3.187-1.207-3.398l.025-.665c-1.732.984-2.861 2.554-2.861 4.326 0 2.975 3.168 5.395 7.062 5.395s7.062-2.42 7.062-5.395c-.002-1.892-1.286-3.556-3.22-4.519zm20.907-8.658c-.597-1.103-1.516-1.484-2.336-1.484-.288 0-.564.047-.811.126-.435.14-1.832.747-1.586 2.693.664 6.446-2.889 14.007-8.26 17.62-1.689 1.074-1.265 2.538-1.096 2.961.37.924 1.388 1.886 3.054 1.559 3.064-.531 6.811-4.522 9.356-9.938 2.544-5.411 3.225-10.838 1.696-13.505l-.017-.032z"/><path fill="#FFF" d="M21.343 45.593c.643 0 1.125-.173 1.471-.53.13-.133.236-.285.321-.444l-1.792.784-1.792-.784c.085.159.191.311.321.444.346.357.827.53 1.471.53z"/><path d="M18.5 46.373c.714.741 1.67 1.116 2.843 1.116s2.13-.376 2.843-1.116c1.249-1.296 1.216-3.187 1.207-3.398l-.032-.858a7.953 7.953 0 0 0-.615-.273l-3.404 1.489-3.238-1.417c-.275.117-.536.25-.787.393l-.025.665c-.008.212-.041 2.103 1.208 3.399zm-.26-3.363l3.103 1.358 3.103-1.358s.132 3.531-3.103 3.531c-3.236 0-3.103-3.531-3.103-3.531z"/><path d="M17.344 41.584l-.027.726c.251-.143.512-.276.787-.393l-.76-.333zm7.997 0l-.595.26c.211.083.417.174.615.273l-.02-.533zM18.047 7.837h3v4.656h-3zm4.562 0h3v4.656h-3zm4.562 0h3v4.656h-3zm4.562 0h3v4.656h-3zm4.562 0h3v4.656h-3zm4.562 0h3v4.656h-3z"/><path d="M49.28 19.863c-1.933-1.507-3.116-2.744-3.772-3.683h2.916V4.297H13.556v11.884h2.916c-.656.939-1.839 2.176-3.772 3.683a12.847 12.847 0 0 0-4.97 10.198v27.367a5.17 5.17 0 0 0 5.165 5.164h36.189a5.17 5.17 0 0 0 5.165-5.164V30.062a12.844 12.844 0 0 0-4.969-10.199zM16.556 7.297h28.869v5.884H16.556V7.297zM32.18 55.375c-.169-.423-.593-1.887 1.096-2.961 5.371-3.613 8.924-11.174 8.26-17.62-.246-1.946 1.151-2.553 1.586-2.693.246-.079.522-.126.811-.126.82 0 1.739.381 2.336 1.484l.019.031c1.478 2.578.885 7.737-1.455 12.966l.007-1.059-3-.021-.015 2.092 2.524.018c-2.537 5.163-6.145 8.933-9.115 9.448-1.667.327-2.685-.635-3.054-1.559zm19.07 2.054a2.168 2.168 0 0 1-2.165 2.164H36.899c4.4-1.442 8.212-6.653 10.406-11.321 2.374-5.051 4.037-11.971 1.593-16.258-.666-1.221-1.677-2.113-2.842-2.605-.038-1.113-.369-2.628-1.752-3.436l-1.514 2.59c.096.056.171.249.217.5a5.645 5.645 0 0 0-.804.183c-2.525.812-3.989 3.193-3.648 5.891.546 5.303-2.509 11.799-6.921 14.769-2.324 1.478-3.224 4.124-2.239 6.586a5.518 5.518 0 0 0 3.134 3.103H12.896a2.167 2.167 0 0 1-2.165-2.164V30.062a9.864 9.864 0 0 1 3.814-7.832c2.915-2.272 4.669-4.267 5.311-6.049h4.825l-.281 2.25c-.536.016-1.14.068-1.836.181a1.916 1.916 0 0 0-1.554 1.432c-.104.417-.052.84.11 1.218a8.718 8.718 0 0 0-.484.478 8.682 8.682 0 0 0-2.284 6.286 8.684 8.684 0 0 0 2.83 6.06 8.68 8.68 0 0 0 6.287 2.283 8.682 8.682 0 0 0 6.059-2.83 8.682 8.682 0 0 0 2.284-6.286 8.684 8.684 0 0 0-2.83-6.06 8.708 8.708 0 0 0-1.489-1.094l.015-.03a1.911 1.911 0 0 0-.437-2.27 1.907 1.907 0 0 0-2.301-.214l-1.372.843c-.579-1.014-1.465-2.081-2.69-2.247h17.42c.643 1.782 2.396 3.777 5.311 6.049a9.864 9.864 0 0 1 3.814 7.832v27.367zM28.573 22.123l.237.57-1.271-.749-.558-.329 1.412-.867-.211.433.391.942zm.45 3.598a1.925 1.925 0 0 0 2.847-1.207 5.683 5.683 0 0 1-.557 6.999 5.746 5.746 0 0 1-8.107.359 5.7 5.7 0 0 1-1.858-3.979 5.675 5.675 0 0 1 1.064-3.547c.036.715.437 1.351 1.105 1.654a1.91 1.91 0 0 0 2.17-.405l1.145-1.166 2.191 1.292zm-6.806-5.33a.656.656 0 0 1 .546-.545c.186-.03.339-.042.51-.063a8.432 8.432 0 0 0-1.056.608zm3.397 1.71l-.607.619.033-.435.062-.811-.721-.545c1.127-.048 1.663.14 1.82.209l.163.198-.75.765z"/><path d="M34.335 53.995l1.276-2.714 1.893.89-1.275 2.714zm7.527-16.421l.43-2.047 2.936.617-.43 2.047zm-20.345.667c-5.548 0-10.062 3.766-10.062 8.395s4.514 8.395 10.062 8.395c5.548 0 10.062-3.766 10.062-8.395s-4.514-8.395-10.062-8.395zm0 13.789c-3.894 0-7.062-2.42-7.062-5.395 0-1.772 1.129-3.342 2.861-4.326l.027-.726.76.333a8.762 8.762 0 0 1 3.413-.675c1.164 0 2.26.22 3.229.603l.595-.26.02.533c1.934.963 3.218 2.628 3.218 4.519.001 2.974-3.167 5.394-7.061 5.394z"/><path d="M21.343 44.368L18.24 43.01s-.132 3.531 3.103 3.531c3.235 0 3.103-3.531 3.103-3.531l-3.103 1.358zm1.471.695c-.347.356-.828.53-1.471.53s-1.125-.173-1.471-.53a1.945 1.945 0 0 1-.321-.444l1.792.784 1.792-.784a1.945 1.945 0 0 1-.321.444z"/></symbol><symbol viewBox="0 0 64 64" id="category--fish" xmlns="http://www.w3.org/2000/svg"><path d="M9.039 42.591a3.719 3.719 0 0 0-1.095 2.644c0 .998.39 1.937 1.095 2.643a3.726 3.726 0 0 0 2.643 1.093c.956 0 1.913-.364 2.642-1.093a3.715 3.715 0 0 0 1.096-2.643c0-.999-.389-1.937-1.096-2.644a3.745 3.745 0 0 0-5.285 0zm3.523 3.524a1.243 1.243 0 0 1-1.762 0 1.242 1.242 0 0 1 0-1.762 1.244 1.244 0 0 1 1.762 0v.001c.235.235.365.546.365.88 0 .333-.13.645-.365.881z"/><path d="M61.94 19.452a2.87 2.87 0 0 0-1.63-2.053c-.562-.251-.771-.824-1.052-1.737-.285-.937-.804-2.669-2.765-2.501-.664.066-1.247-.124-1.646-.521-.397-.398-.583-.983-.521-1.646.131-1.415-.309-2.707-1.241-3.64-.88-.878-2.082-1.303-3.465-1.256a6.224 6.224 0 0 1-.046-.239c-.179-.942-.546-2.883-3.255-3.248-.478-.152-1.79-.468-2.878.199-.52.32-1.167.974-1.302 2.4l-.029 7.803H29.39c-1.981 0-3.902.24-5.758.66a21.246 21.246 0 0 0-3.339-7.049l-.617-.853-.946.467c-.237.117-5.817 2.931-7.355 7.771-.623 1.958-.505 3.947.347 5.93-5.196 4.781-8.478 11.615-8.478 19.216v22.443h22.271c7.03 0 13.638-2.736 18.609-7.709a27.748 27.748 0 0 0 1.708-1.882c.548.044 1.116.077 1.726.077 3.515 0 7.984-.861 12.424-4.079l.854-.618-.468-.945c-.144-.29-3.347-6.601-8.802-7.605.157-1.172.267-2.353.265-3.555V22.637l7.87.073.1-.016a2.523 2.523 0 0 0 1.473-.783l.004-.004a2.782 2.782 0 0 0 .662-2.455zm-48.192-4.678c.882-2.787 3.68-4.844 5.159-5.767a18.705 18.705 0 0 1 2.354 5.315 25.96 25.96 0 0 0-3.264 1.339c-.255.123-.516.238-.766.37-.349.184-.684.387-1.024.586a24.58 24.58 0 0 0-1.03.627c-.307.2-.604.408-.9.619-.177.125-.361.236-.534.365a5.62 5.62 0 0 1 .005-3.454zm43.849 31.844c-3.595 2.314-7.151 2.967-10.002 2.973a26.002 26.002 0 0 0 3.476-8.111c.017-.068.04-.135.057-.203 3.14.586 5.471 3.74 6.469 5.341zm1.855-26.402l-10.112-.092v15.159c0 1.442-.145 2.86-.392 4.248l-.033.176c-.071.376-.157.751-.247 1.123a23.9 23.9 0 0 1-4.394 9.112l-.483.616a24.25 24.25 0 0 1-1.427 1.573 23.672 23.672 0 0 1-16.847 6.979H5.736V39.156c0-7.237 3.275-13.716 8.412-18.06a23.436 23.436 0 0 1 6.455-3.883c.019-.008.038-.013.055-.02a23.654 23.654 0 0 1 2.38-.799 23.536 23.536 0 0 1 6.353-.892h15.202l.032-10.165c.027-.266.092-.389.123-.406.123-.077.554-.046.843.06l.311.077c1.008.112 1.065.398 1.224 1.253.129.674.471 2.461 2.552 2.273.662-.063 1.247.123 1.647.521.397.398.583.984.521 1.647-.131 1.416.308 2.707 1.24 3.639.905.903 2.16 1.338 3.537 1.25.083.18.182.506.254.739.31 1.016.78 2.554 2.421 3.286.118.052.183.179.202.28.011.051.026.178-.049.259l.001.001zm.17.191v-.035l.744.689-.744-.654z"/><path d="M11.681 33.417v2.492c9.617 0 17.442 7.823 17.442 17.442h2.492c0-10.991-8.943-19.934-19.934-19.934z"/><path d="M15.736 29.363v2.492c9.617 0 17.442 7.824 17.442 17.441h2.492c0-10.991-8.943-19.933-19.934-19.933z"/><path d="M19.609 25.489v2.492c9.618 0 17.442 7.823 17.442 17.442h2.492c0-10.992-8.941-19.934-19.934-19.934z"/><path d="M23.664 21.433v2.492c9.618 0 17.442 7.824 17.442 17.442h2.492c0-10.991-8.942-19.934-19.934-19.934z"/></symbol><symbol viewBox="0 0 64 64" id="category--meat" xmlns="http://www.w3.org/2000/svg"><path fill="none" d="M53.928 25.593c-.613.392-1.185.758-1.678 1.099-3.057 2.115-5.599 5.364-8.289 8.804-4.504 5.757-9.162 11.711-16.704 12.54a9.24 9.24 0 0 1-1.021.053c-3.709 0-9.135-1.889-14.223-5-1.889-1.156-5.446-3.562-7.896-6.561l.001 2.945c.195 5.377 11.927 12.305 19.438 14.151 1.816.447 2.862.467 3.42.406 6.474-.712 10.601-5.988 14.971-11.575 2.691-3.439 5.472-6.995 8.849-9.331a59.68 59.68 0 0 1 1.753-1.149c2.881-1.846 6.821-4.368 7.229-7.341l.018-3.51c-1.697 1.781-3.937 3.233-5.868 4.469z"/><path d="M62.302 16.409a6.455 6.455 0 0 0-.168-2.576c-.517-1.886-1.851-3.377-3.857-4.31-3.53-1.643-8.524-1.291-13.361.943l-2.342 1.083c-9.747 4.518-18.955 8.785-29.875 10.751-9.896 1.783-11.539 5.829-11.141 8.959l.003 8.26c.271 7.508 14.066 14.791 21.385 16.589 1.365.336 2.548.505 3.529.505.277 0 .538-.014.782-.041 7.543-.829 12.201-6.782 16.705-12.54 2.691-3.44 5.232-6.688 8.289-8.803a56.434 56.434 0 0 1 1.677-1.099c3.333-2.134 7.898-5.058 8.399-9.259.006-.048.009-.097.009-.145l.039-7.941a1.248 1.248 0 0 0-.073-.376zM23.555 53.624C16.044 51.778 4.312 44.85 4.117 39.473l-.001-2.945c2.45 3 6.007 5.406 7.896 6.561 2.78 1.701 5.653 3.018 8.3 3.88a1.223 1.223 0 0 0-.291.772v3.392a1.25 1.25 0 0 0 2.5 0v-3.392c0-.056-.025-.105-.032-.159 1.207.284 2.334.45 3.348.484v5.355c0 .229.079.433.186.617-.593-.037-1.393-.15-2.468-.414zm36.223-28.991c-.409 2.972-4.348 5.495-7.229 7.341-.64.41-1.238.793-1.753 1.149-3.377 2.336-6.158 5.892-8.849 9.331-4.074 5.209-7.939 10.144-13.69 11.365.043-.127.081-.258.081-.399v-5.552c6.911-1.254 11.339-6.897 15.622-12.373 2.691-3.44 5.232-6.689 8.289-8.804a59.382 59.382 0 0 1 1.678-1.099c1.931-1.236 4.171-2.688 5.868-4.47l-.017 3.511zm-.381-7.275a6.27 6.27 0 0 1-.405.698c-1.364 2.119-4.149 3.914-6.442 5.382-.64.41-1.239.793-1.754 1.15-3.377 2.336-6.159 5.892-8.849 9.332-4.37 5.586-8.497 10.862-14.969 11.575-6.494.707-21.106-7.602-22.762-13.942a5.064 5.064 0 0 1-.114-.538 3.245 3.245 0 0 1 .48-2.254c1.355-2.169 5.176-3.329 8.572-3.941 11.244-2.025 20.596-6.359 30.497-10.948l2.338-1.082c4.1-1.892 8.396-2.255 11.211-.946.909.423 2.076 1.229 2.471 2.667.091.333.125.661.132.987a4.126 4.126 0 0 1-.406 1.86z"/><path d="M20.476 32.85c.562 1.981 3.251 3.662 5.871 3.671h.024c3.162 0 7.221-1.932 8.286-5.065.351-1.035.057-2.021-.807-2.707-2.307-1.83-8.847-1.261-11.709.52-2.057 1.28-1.849 2.931-1.665 3.581zm2.822-1.719c2.426-1.51 7.864-1.715 9.189-.664.151.119.142.145.094.285-.649 1.909-3.546 3.577-6.207 3.577h-.02c-1.763-.006-3.504-1.141-3.77-2.077-.044-.157-.163-.575.714-1.121z"/><path d="M21.548 37.102c.443-1.556-.947-2.653-1.961-3.454-.393-.31-.93-.735-1.047-.966-.294-.582.638-1.943 1.255-2.844.345-.503.67-.979.91-1.439.561-1.075.312-2.155-.633-2.75-2.315-1.46-9.399.265-11.797 3.455-.956 1.273-2.036 3.874 1.475 6.993a11.689 11.689 0 0 0 5.499 2.726c.618.121 1.552.264 2.518.264 1.62 0 3.329-.403 3.781-1.985zm-10.38-2.601c-2.417-2.147-1.737-3.497-1.015-4.326 1.719-1.973 5.589-2.946 7.611-2.946.471 0 .841.052 1.061.158l-.013.026c-.181.346-.471.77-.779 1.219-1.008 1.471-2.263 3.303-1.399 5.012.329.652.96 1.151 1.629 1.679.387.305 1.192.941 1.232 1.194-.109.382-1.621.647-3.834.212a9.55 9.55 0 0 1-4.493-2.228z"/><path d="M39.618 32.334c-1.812.346-2.611.225-3.825.041l-.241-.036a1.13 1.13 0 0 0-1.1.478c-3.511 5.096-7.702 4.607-9.95 4.35l-.459-.051c-.43-.049-.85.161-1.079.531-.744 1.202-1.886 1.951-5.277 1.97a1.132 1.132 0 0 0-.549 2.12c3.14 1.768 5.995 2.475 8.554 2.475 8.259 0 13.435-7.362 15.112-10.185a1.134 1.134 0 0 0-1.186-1.693zm-17.8 8.975c1.121-.394 1.975-1.003 2.652-1.866 2.364.271 7.353.655 11.431-4.761.538.077 1.071.138 1.696.138-5.308 7.535-11.309 7.856-15.779 6.489zm32.419-27.223a.987.987 0 0 0-.357-.194 1.487 1.487 0 0 0-.624-.929c-2.425-1.666-6.985.391-7.497.631-1.701.797-3.286 1.716-4.82 2.605-2.226 1.29-4.327 2.508-6.774 3.401-.613.224-1.457.413-2.35.614-2.33.522-4.969 1.115-6.107 2.842-.791 1.202-.569 2.024-.243 2.503.505.741 1.477 1.018 2.814 1.018.934 0 2.045-.136 3.299-.343l.242-.039c2.126-.338 3.968-.757 5.618-1.271.023.019.039.042.064.059.446.307 1.234 1.096 1.127 1.616a.936.936 0 0 0 .204.794c.187.221.466.35.761.35h3.879a.99.99 0 0 0 .822-.431c2.292-3.395 5.051-4.649 7.268-5.657 2.396-1.089 4.659-2.118 4.723-5.352a.947.947 0 0 0-.33-.734l-1.719-1.483zM31.468 24.097l-.256.042c-2.391.396-3.373.349-3.777.253.028-.052.065-.116.114-.19.657-.997 2.93-1.507 4.757-1.917.966-.217 1.879-.422 2.628-.695 2.63-.96 4.914-2.285 7.125-3.565 1.492-.865 3.036-1.76 4.65-2.516 1.558-.73 3.611-1.239 4.755-1.014-1.521 1.657-8.055 5.45-11.473 7.139-2.256 1.115-4.965 1.898-8.523 2.463zm19.261-4.176c-2.225 1.012-5.241 2.383-7.779 5.909h-2.435a3.547 3.547 0 0 0-.596-1.172c3.584-1.279 10.215-4.705 13.763-8.493l.609.525c-.185 1.626-1.288 2.198-3.562 3.231z"/></symbol><symbol viewBox="0 0 64 64" id="category--more" xmlns="http://www.w3.org/2000/svg"><path d="M24.807 15.354l34.586.036a1.82 1.82 0 0 0 0-3.64l-34.586-.036a1.82 1.82 0 0 0 0 3.64zm34.623 14.58l-34.586-.036a1.82 1.82 0 0 0 0 3.64l34.586.036a1.82 1.82 0 0 0 0-3.64zm0 18.203l-34.586-.036a1.82 1.82 0 0 0 0 3.64l34.586.036a1.82 1.82 0 0 0 0-3.64zM10.263 6.307C6.251 6.307 3 9.558 3 13.57s3.251 7.263 7.263 7.263 7.263-3.251 7.263-7.263-3.251-7.263-7.263-7.263zm-.018 10.903c-2.046 0-3.686-1.595-3.686-3.641s1.64-3.641 3.686-3.641c2.046 0 3.641 1.595 3.641 3.641s-1.595 3.641-3.641 3.641zm.018 7.3C6.251 24.51 3 27.761 3 31.773s3.251 7.263 7.263 7.263 7.263-3.251 7.263-7.263-3.251-7.263-7.263-7.263zm-.018 10.903c-2.046 0-3.686-1.595-3.686-3.641s1.64-3.641 3.686-3.641c2.046 0 3.641 1.595 3.641 3.641s-1.595 3.641-3.641 3.641zm.018 7.263C6.251 42.676 3 45.927 3 49.939s3.251 7.263 7.263 7.263 7.263-3.251 7.263-7.263-3.251-7.263-7.263-7.263zm-.018 10.904c-2.046 0-3.686-1.595-3.686-3.641s1.64-3.641 3.686-3.641c2.046 0 3.641 1.595 3.641 3.641s-1.595 3.641-3.641 3.641z"/></symbol><symbol viewBox="0 0 64 64" id="category--productsother" xmlns="http://www.w3.org/2000/svg"><path d="M54.965 20.862a1.354 1.354 0 0 0-1.329-.035l-1.569.835c-1.814-4.512-5.73-7.961-10.537-9.117 2.513-1.272 4.026-3.617 4.05-6.277a1.35 1.35 0 1 0-2.699-.024 4.158 4.158 0 0 1-.954 2.596l-.268.301c-.378.39-.827.732-1.354.998-.195.099-.483.189-.788.286-.799.252-2 .656-2.633 1.741-4.928.357-9.211 3.073-11.72 7.021a27.678 27.678 0 0 0-.726-5.847c-.008-.088-.038-.172-.064-.258C22.555 5.74 17.816.479 12.231.479h-.002a1.35 1.35 0 0 0-1.35 1.35v18.84H9.73a1.35 1.35 0 0 0-1.35 1.35v39.629c0 .745.604 1.35 1.35 1.35h44.54c.172 0 .335-.039.488-.099.05-.02.091-.05.138-.075.097-.052.188-.108.269-.182.045-.04.081-.085.12-.131a1.32 1.32 0 0 0 .246-.427c.013-.038.038-.07.048-.11.017-.069.01-.138.016-.207.004-.041.024-.077.024-.119V22.02a1.35 1.35 0 0 0-.654-1.158zM13.579 3.313c2.516.524 4.748 2.537 6.347 5.472-1.585-.719-2.854-.742-2.951-.742-.74 0-1.335.596-1.343 1.336a1.356 1.356 0 0 0 1.33 1.364c.12.002 2.903.103 4.885 3.258.173.761.313 1.548.416 2.357-1.475-.886-3.103-1.135-4.12-1.088a1.346 1.346 0 0 0-1.288 1.397 1.36 1.36 0 0 0 1.394 1.3c.127-.009 3.111-.055 4.206 2.54-.002.054-.007.107-.009.161H13.58V3.313zm26.716 36.233V60.3H11.081V23.37h29.215v16.176zm1.913-18.745c-.034-.016-.068-.026-.104-.039a1.35 1.35 0 0 0-.414-.084c-.016-.001-.029-.009-.045-.009h-14.22a12.566 12.566 0 0 1 5.553-4.801c-.057.104-.117.201-.173.31a1.35 1.35 0 0 0 2.4 1.235c.851-1.654 1.864-2.603 2.781-2.603.978 0 2.083 1.107 2.958 2.961a1.348 1.348 0 0 0 1.797.645 1.35 1.35 0 0 0 .645-1.797c-.128-.272-.269-.512-.407-.76a12.55 12.55 0 0 1 6.695 7.073l-1.717.913-5.679-3.02c-.022-.009-.047-.013-.07-.024zm3.851 39.498l1.898-2.478 1.898 2.478h-3.796zM52.92 24.59v34.812L48.591 55.1a1.36 1.36 0 0 0-1.268 0l-4.329 4.302V24.266l4.329 2.302a1.35 1.35 0 0 0 1.268 0l1.758-.935 2.507-1.333.064-.034v.324"/><path fill="#FFF" d="M47.957 30.632v15.811"/><path d="M37.576 29.081a1.351 1.351 0 0 0-1.401.101l-2.417 1.722-2.417-1.722a1.349 1.349 0 0 0-1.566 0l-2.417 1.722-2.417-1.722a1.35 1.35 0 0 0-2.133 1.099v19.133c0 .745.604 1.35 1.35 1.35h12.801a1.35 1.35 0 0 0 1.35-1.35V30.281a1.352 1.352 0 0 0-.733-1.2zm-1.968 18.983H25.507V32.9l1.067.759a1.349 1.349 0 0 0 1.566 0l2.417-1.721 2.417 1.721a1.349 1.349 0 0 0 1.566 0l1.067-.759v15.164z"/><path d="M33.188 34.893h-5.26a1.35 1.35 0 1 0 0 2.7h5.26a1.35 1.35 0 0 0 0-2.7zm0 3.605h-5.26a1.35 1.35 0 1 0 0 2.7h5.26a1.35 1.35 0 0 0 0-2.7zm0 3.605h-5.26a1.35 1.35 0 1 0 0 2.7h5.26a1.35 1.35 0 0 0 0-2.7z"/></symbol><symbol viewBox="0 0 64 64" id="category--sosidge" xmlns="http://www.w3.org/2000/svg"><path d="M64.33 41.422l-.644-1.266c-1.415-2.784-3.868-4.07-3.972-4.124l-1.33-.685-1.816 3.506c-2.001-.862-4.31-.666-6.372.678-5.242 3.242-13.016 3.846-19.257 1.667l12.264-12.596c3.349-3.438 4.04-8.576 2.097-12.73l4.971-3.971-3.898-2.497-2.297-3.967-3.82 5.045c-1.503-.873-3.071-1.331-4.694-1.347h-.091c-3.99 0-6.75 2.676-6.888 2.812L7.746 33.349c-3.348 3.438-4.039 8.576-2.097 12.73l-4.971 3.97 3.898 2.497 2.297 3.968 3.805-5.024c1.734 1.037 3.378 1.42 4.841 1.42 1.746 0 3.231-.53 4.32-1.091 4.469 4.101 12.392 5.536 19.004 5.536.961 0 1.896-.03 2.787-.088 8.328-.53 14.962-3.286 17.726-7.342 1.531-2.135 1.746-4.404 1.229-6.332l3.745-2.171zm-4.773-1.814c.22.204.451.444.677.72l-.913.528-.256-.298.492-.95zM43.742 10.849l.4.69.986.632-1.465 1.17c-.151-.176-.296-.354-.459-.522-.182-.187-.369-.355-.554-.528l1.092-1.442zM29.138 21.28l-8.649 8.883-2.59-2.66 11.134-11.436 5.089 5.227-11.135 11.435-.405-.416 8.705-8.941-2.149-2.092zM7.208 51.104l-.399-.69-.986-.632 1.465-1.17c.151.176.296.355.46.523.186.191.37.351.556.525l-1.096 1.444zm2.688-4.063c-3.113-3.198-3.113-8.401 0-11.599l5.772-5.929 7.319 7.517 15.322-15.736-7.292-7.49c.652-.52 2.328-1.67 4.456-1.67h.06c1.89.02 3.747.953 5.522 2.776 3.113 3.198 3.113 8.401-.001 11.599L28 39.917a13.876 13.876 0 0 1-.64-.366c-1.864-1.214-3.965-1.52-5.86-.905l-1.743-3.292-1.318.679c-.104.054-2.556 1.34-3.971 4.124l-.643 1.266 3.195 1.852c-.655 2.051-.366 4.259.83 6.174-2.077.84-4.849.78-7.954-2.408zm8.714-7.442l.862 1.63-1.551-.899c.23-.281.465-.524.689-.731zm38.288 8.606c-2.233 3.276-8.157 5.602-15.459 6.067-8.777.552-16.907-1.583-20.231-5.331a7.69 7.69 0 0 1-.602-.766c-1.073-1.497-1.213-3.294-.375-4.807l.526-.95.875-.548c.721-.452 2.212-1.03 4.123.215.551.338 1.157.662 1.907 1.019l.005.002.471.224v5.517h3v-4.444a27.31 27.31 0 0 0 6.623 1.035v3.41h2v-3.405a27.542 27.542 0 0 0 6.624-1.029v4.434h3v-5.522a19.943 19.943 0 0 0 2.417-1.262c2.543-1.655 4.354-.095 4.849.422 1.238 1.293 1.799 3.554.247 5.719z"/></symbol><symbol viewBox="0 0 64 64" id="category--tomato" xmlns="http://www.w3.org/2000/svg"><path d="M49.686 13.549l-.004-.003c-.019-.013-.042-.02-.062-.032a1.81 1.81 0 0 0-.831-1.682c-2.849-1.827-8.361-4.493-13.82-2.305V5.378c0-1.7-1.232-3.084-2.747-3.084h-2.461c-1.515 0-2.747 1.384-2.747 3.084v4.543c-2.462-.438-7.824-.872-12.977 2.206a1.829 1.829 0 0 0-.78 2.245c.032.088.092.152.135.231-.113.03-.23.055-.341.085-.262.07-.512.199-.729.377-6.096 5.074-9.593 12.305-9.593 19.84 0 14.779 13.13 26.8 29.27 26.8 16.141 0 29.271-12.021 29.271-26.8.001-8.453-4.222-16.237-11.584-21.356zM27.01 12.176a1.82 1.82 0 0 0 1.535-.377c.435-.353.683-.879.683-1.44V5.378c0-.489.288-.87.534-.87h2.461c.247 0 .532.381.532.87v4.703c0 .631.317 1.212.848 1.553a1.839 1.839 0 0 0 1.773.125c4.046-1.849 8.325-.276 11.062 1.244-2.581-.033-4.681.172-6.291.568a1.824 1.824 0 0 0-1.379 1.512 1.869 1.869 0 0 0 .909 1.89c1.608.946 2.662 2.009 3.363 3.052a7.628 7.628 0 0 1 1.018 2.174c-2.425-1.986-5.145-2.715-7.008-2.976a14.42 14.42 0 0 0-1.537-.135 1.837 1.837 0 0 0-1.356.529 1.881 1.881 0 0 0-.558 1.362c.089 5.685-1.876 9.498-3.018 11.223-1.091-2.311-1.427-7.283-1.366-11.368a1.86 1.86 0 0 0-1.637-1.868 6.668 6.668 0 0 0-.861-.054c-.055 0-.112.01-.166.012-.151.003-.302.02-.454.032-.228.018-.456.04-.685.079a7.611 7.611 0 0 0-.445.089 11.166 11.166 0 0 0-1.131.309c-.242.081-.483.169-.723.265-.135.054-.269.107-.403.166-.245.108-.489.222-.73.342-.126.062-.253.123-.378.188-.249.131-.492.269-.736.411-.114.067-.228.128-.34.197-.265.161-.522.326-.776.495-.083.055-.169.107-.251.163-.335.227-.662.458-.977.692.396-.718.819-1.358 1.249-1.934.023-.031.045-.066.068-.096.452-.597.912-1.118 1.359-1.57l.007-.007a14.578 14.578 0 0 1 1.641-1.433c.071-.053.146-.114.213-.163.04-.029.072-.049.111-.076.136-.096.271-.19.391-.269a1.84 1.84 0 0 0 .827-1.735 1.845 1.845 0 0 0-1.163-1.537c-.057-.022-.127-.033-.185-.054a7.926 7.926 0 0 0-.778-.23 8.403 8.403 0 0 0-.518-.115c-.025-.004-.048-.012-.074-.017-.017-.003-.032.001-.049-.001-1.263-.221-2.753-.255-4.489-.069 4.171-1.733 8.189-1.22 9.878-.87zm4.989 47.317c-14.919 0-27.057-11.029-27.057-24.587 0-6.856 3.189-13.451 8.743-18.095a65.202 65.202 0 0 1 7.559-1.514c.088.016.184.024.268.042.07.014.142.028.208.043-.099.072-.21.163-.315.242-.115.089-.225.168-.345.266-.105.085-.217.187-.325.279-.134.114-.264.219-.402.344-.13.118-.265.256-.399.385-.123.118-.243.227-.367.354a17.72 17.72 0 0 0-.675.737c-.038.043-.075.078-.112.121a19.01 19.01 0 0 0-2.988 4.773 1.81 1.81 0 0 0 .577 2.201 1.855 1.855 0 0 0 2.307-.047c1.892-1.557 5.426-4.098 8.324-3.907-.029 3.113.136 9.867 1.987 12.749.332.517.897.837 1.508.854h.055c.591 0 1.148-.282 1.499-.763 1.148-1.578 3.778-5.928 3.769-12.655 1.617.106 4.905.65 7.52 3.203a1.823 1.823 0 0 0 2.111.333 1.839 1.839 0 0 0 1.016-1.899 9.648 9.648 0 0 0-.359-1.637c-.008-.025-.012-.049-.019-.075a9.612 9.612 0 0 0-.722-1.659c-.042-.079-.074-.155-.119-.233a9.434 9.434 0 0 0-.476-.722c-.058-.084-.104-.168-.167-.252-.144-.192-.319-.384-.483-.576-.114-.131-.21-.264-.332-.395-.144-.152-.321-.302-.481-.452-.174-.166-.334-.335-.527-.498-.167-.141-.37-.276-.552-.414-.221-.167-.424-.338-.668-.5a21.703 21.703 0 0 1 2.086-.242l.102-.006a32.5 32.5 0 0 1 .517-.03l.29-.013.419-.016c.175-.005.356-.009.54-.011l.257-.005c.337-.003.695-.001 1.066.005l.397.035c.329.044.657.083.986.123l.275.032C55.21 20.11 59.061 27.21 59.061 34.903c-.004 13.561-12.142 24.59-27.062 24.59z"/><path d="M9.434 36.284a1.097 1.097 0 0 0-1.257-.934 1.106 1.106 0 0 0-.933 1.256 12.524 12.524 0 0 0 1.613 4.589 1.108 1.108 0 0 0 1.905-1.13 10.392 10.392 0 0 1-1.328-3.781zm-1.033-3.358a1.105 1.105 0 0 0 1.179-1.027 13.28 13.28 0 0 1 .768-3.636 1.107 1.107 0 1 0-2.079-.761 15.653 15.653 0 0 0-.898 4.243 1.107 1.107 0 0 0 1.03 1.181z"/></symbol><symbol viewBox="0 0 24 24" id="checked" xmlns="http://www.w3.org/2000/svg"><path clip-rule="evenodd" fill="none" stroke="currentColor" stroke-miterlimit="10" stroke-width="2" d="M21.2 5.6l-10 9.6-4.4-4.4"/><path d="M19.9 13c-.5 3.9-3.9 7-7.9 7-4.4 0-8-3.6-8-8s3.6-8 8-8c1.4 0 2.7.4 3.9 1l1.5-1.5C15.8 2.6 14 2 12 2 6.5 2 2 6.5 2 12s4.5 10 10 10c5.2 0 9.4-3.9 9.9-9h-2z"/></symbol><symbol viewBox="0 0 15.57 20.13" id="clock" xmlns="http://www.w3.org/2000/svg"><path fill-rule="evenodd" d="M4.41 11.52l1.74-1.73v-3a.41.41 0 0 1 .41-.41h.82a.41.41 0 0 1 .41.41v3.51a.45.45 0 0 1-.12.29l-2.1 2.09a.41.41 0 0 1-.58 0l-.58-.58a.41.41 0 0 1 0-.58zm8.12-5.64a7 7 0 0 0-1.47-1.45v-4a.41.41 0 0 0-.41-.43H3.28a.41.41 0 0 0-.41.41v4a6.93 6.93 0 0 0-2.06 2.4 6.93 6.93 0 0 0 0 6.5 6.76 6.76 0 0 0 2.06 2.38v4a.41.41 0 0 0 .41.41h7.37a.41.41 0 0 0 .41-.41v-4a6.89 6.89 0 0 0 2.42-3.17h1.68a.41.41 0 0 0 .41-.41V8a.41.41 0 0 0-.41-.41h-1.68a6.87 6.87 0 0 0-1-1.72zM9.42 1.64v1.91a7 7 0 0 0-.89-.27A6.79 6.79 0 0 0 7 3.1a6.66 6.66 0 0 0-1.56.18 6.69 6.69 0 0 0-.9.27V1.64zM4.51 18.49v-1.91a6.69 6.69 0 0 0 .9.27A6.66 6.66 0 0 0 7 17a6.79 6.79 0 0 0 1.56-.18 7 7 0 0 0 .89-.27v1.91zm6.22-4.66a5.31 5.31 0 0 0 1.56-3.77 5.33 5.33 0 0 0-10.65 0 5.32 5.32 0 0 0 9.09 3.77z"/></symbol><symbol viewBox="0 0 24 24" id="clock--min" xmlns="http://www.w3.org/2000/svg"><path d="M12 21c-5 0-9-4-9-9s4-9 9-9 9 4 9 9-4 9-9 9z" fill="none" stroke="currentColor" stroke-miterlimit="10" stroke-width="2"/><path fill="none" stroke="currentColor" stroke-miterlimit="10" stroke-width="2" d="M12 7v5l3 3"/></symbol><symbol viewBox="0 0 15.57 11.47" id="hamburger" xmlns="http://www.w3.org/2000/svg"><path d="M0 1.23V.41A.41.41 0 0 1 .41 0h14.75a.41.41 0 0 1 .41.41v.82a.41.41 0 0 1-.41.41H.41A.41.41 0 0 1 0 1.23zm15.16 5.33H.41A.41.41 0 0 1 0 6.15v-.82a.41.41 0 0 1 .41-.41h14.75a.41.41 0 0 1 .41.41v.82a.41.41 0 0 1-.41.41zm0 4.91H.41a.41.41 0 0 1-.41-.41v-.82a.41.41 0 0 1 .41-.41h14.75a.41.41 0 0 1 .41.41v.82a.41.41 0 0 1-.41.41z"/></symbol><symbol viewBox="0 0 32 32" id="location" xmlns="http://www.w3.org/2000/svg"><path d="M16 1A11 11 0 0 0 5 12c0 11.24 10 18.51 10.42 18.81a1 1 0 0 0 1.16 0C17 30.51 27 23.24 27 12A11 11 0 0 0 16 1zm0 27.73C13.92 27 7 20.73 7 12a9 9 0 0 1 18 0c0 8.71-6.92 15-9 16.73z"/><path d="M16 7a5 5 0 1 0 5 5 5 5 0 0 0-5-5zm0 8a3 3 0 1 1 3-3 3 3 0 0 1-3 3z"/></symbol><symbol viewBox="0 0 377.341 377.341" id="login" xmlns="http://www.w3.org/2000/svg"><path d="M200.631 236.439c-6.353 6.358-6.358 16.709 0 23.094 3.079 3.079 7.174 4.776 11.536 4.776s8.452-1.692 11.547-4.776l59.362-59.346c1.474-1.507 2.643-3.263 3.519-5.347a16.4 16.4 0 0 0 1.218-6.168c0-2.105-.408-4.172-1.273-6.315a16.343 16.343 0 0 0-3.514-5.227l-59.313-59.313a16.205 16.205 0 0 0-11.547-4.781 16.178 16.178 0 0 0-11.536 4.781c-6.364 6.364-6.364 16.72 0 23.083l31.449 31.449H16.317C7.321 172.35 0 179.677 0 188.668s7.321 16.317 16.317 16.317h215.762l-31.448 31.454z"/><path d="M322.95 42.531H139.452c-30.002 0-54.402 24.4-54.402 54.391l.033 57.698h3.263c2.986 3.987 7.74 6.587 13.032 6.587 5.45 0 10.231-2.605 13.184-6.668l3.138-.044V96.921c0-11.982 9.758-21.74 21.751-21.74H322.95c11.988 0 21.751 9.758 21.751 21.74v183.503c0 11.993-9.763 21.74-21.751 21.74H139.452c-11.993 0-21.751-9.747-21.751-21.74l-.027-57.725H114.4c-2.986-3.981-7.74-6.57-13.027-6.57-5.325 0-10.106 2.627-13.086 6.663l-3.242.049v57.583c0 29.986 24.4 54.385 54.402 54.385H322.95c29.996 0 54.391-24.4 54.391-54.385V96.921c0-29.991-24.395-54.39-54.391-54.39z"/></symbol><symbol viewBox="0 0 139.89 114.86" id="logo" xmlns="http://www.w3.org/2000/svg"><path d="M28 83.48h9.36V9.41h64.77v74.07h9.35V0H28v83.48zm55.62-64.77H46.57v64.77h9.36V28.15h9.18v55.33h9.33V28.15h9.18v55.33H93V18.71h-9.38zm-70.3 90.91a.4.4 0 0 1-.08.22.69.69 0 0 1-.24.16l-.53.09a6.88 6.88 0 0 1-.83 0 7.06 7.06 0 0 1-.85 0l-.59-.09a1 1 0 0 1-.28-.17.33.33 0 0 1-.08-.22V95.84H3.46v13.78a.35.35 0 0 1-.09.22.64.64 0 0 1-.28.17c-.11 0-.31.06-.51.09a7.06 7.06 0 0 1-.85 0 7.06 7.06 0 0 1-.85 0 4.17 4.17 0 0 1-.51-.1.64.64 0 0 1-.28-.17.35.35 0 0 1-.09-.22V94.05a1.07 1.07 0 0 1 .28-.82A.92.92 0 0 1 1 93h11.3a.92.92 0 0 1 .74.28 1.16 1.16 0 0 1 .28.82zm15.31-6.1a10.74 10.74 0 0 1-.34 2.84 6.15 6.15 0 0 1-1 2.15 4.17 4.17 0 0 1-1.62 1.36 5.09 5.09 0 0 1-2.21.48 3.51 3.51 0 0 1-.94-.11 4.66 4.66 0 0 1-.82-.28 9.16 9.16 0 0 1-.82-.51c-.26-.2-.51-.46-.79-.71v5.52a.45.45 0 0 1-.09.26.85.85 0 0 1-.28.17 1.78 1.78 0 0 1-.51.11 6.13 6.13 0 0 1-.8 0 6 6 0 0 1-.79 0 1.63 1.63 0 0 1-.51-.11.75.75 0 0 1-.28-.17.45.45 0 0 1-.09-.26V97.8a.35.35 0 0 1 .09-.23c0-.06.11-.11.22-.17l.43-.09h1.36l.42.09a.5.5 0 0 1 .23.17.37.37 0 0 1 .09.25v1.39a7 7 0 0 1 1-.93 5 5 0 0 1 1-.68 4.71 4.71 0 0 1 2.21-.54 4.38 4.38 0 0 1 2.21.51A4.24 4.24 0 0 1 27.55 99a6.32 6.32 0 0 1 .82 2.07 11.74 11.74 0 0 1 .26 2.45zm-3.46.26a8.37 8.37 0 0 0-.11-1.45 4.16 4.16 0 0 0-.37-1.25 2.73 2.73 0 0 0-.71-.85 1.87 1.87 0 0 0-1.1-.34 2.34 2.34 0 0 0-.66.12 2.26 2.26 0 0 0-.65.31 6.69 6.69 0 0 0-.71.59 9.21 9.21 0 0 0-.73.88v3.89a7.5 7.5 0 0 0 1.33 1.32 2.18 2.18 0 0 0 1.3.48 1.87 1.87 0 0 0 1.11-.34 2.6 2.6 0 0 0 .73-.85 4.3 4.3 0 0 0 .43-1.22 5.63 5.63 0 0 0 .14-1.29zm18-.2a8.46 8.46 0 0 1-.39 2.75 6.1 6.1 0 0 1-1.19 2.15 5.61 5.61 0 0 1-2 1.39 8 8 0 0 1-2.86.48 7.21 7.21 0 0 1-2.73-.45 4.82 4.82 0 0 1-2-1.25 5 5 0 0 1-1.13-2.07 8.93 8.93 0 0 1-.37-2.75 8.24 8.24 0 0 1 .4-2.75 5.17 5.17 0 0 1 1.21-2.15 5.28 5.28 0 0 1 2-1.39 7.72 7.72 0 0 1 2.89-.48 8.19 8.19 0 0 1 2.75.42 4.7 4.7 0 0 1 1.9 1.28 5.05 5.05 0 0 1 1.13 2 9.13 9.13 0 0 1 .36 2.82zm-3.4.14a9.05 9.05 0 0 0-.14-1.62 3.85 3.85 0 0 0-.48-1.27 2.48 2.48 0 0 0-.88-.85 2.87 2.87 0 0 0-1.39-.29 3.21 3.21 0 0 0-1.3.26 2.66 2.66 0 0 0-.91.79 3.92 3.92 0 0 0-.57 1.26 7.4 7.4 0 0 0-.17 1.67 9.7 9.7 0 0 0 .14 1.59 3.54 3.54 0 0 0 .48 1.27 2.06 2.06 0 0 0 .88.85 2.85 2.85 0 0 0 1.36.29 3.23 3.23 0 0 0 1.34-.26 2.46 2.46 0 0 0 .9-.79 3.23 3.23 0 0 0 .54-1.25 7 7 0 0 0 .17-1.65zm6.83 10.18a.48.48 0 0 1 0 .19.54.54 0 0 1-.26.17l-.42.09a4.58 4.58 0 0 1-.68 0 5 5 0 0 1-.71 0l-.43-.09c-.11-.05-.2-.08-.25-.17a.36.36 0 0 1-.06-.19V108a.81.81 0 0 1 .14-.54.78.78 0 0 1 .51-.14H45a8.08 8.08 0 0 0 .79-1.25 11.42 11.42 0 0 0 .71-1.76c.2-.68.4-1.5.59-2.46s.34-2.13.49-3.49l.08-.42a2.16 2.16 0 0 1 .17-.31.9.9 0 0 1 .28-.2.82.82 0 0 1 .4-.06h7.29a.84.84 0 0 1 .7.26 1.24 1.24 0 0 1 .23.79v8.9h1.33a.74.74 0 0 1 .51.14c.12.09.17.26.17.54v5.9a.22.22 0 0 1-.08.19c0 .09-.11.12-.23.17l-.45.09a4.81 4.81 0 0 1-.71 0 4.72 4.72 0 0 1-.68 0l-.45-.09a.41.41 0 0 1-.23-.17.23.23 0 0 1-.09-.19V110h-9.25zm6.78-13.9h-2.84c-.14 1.1-.31 2.07-.48 2.86s-.37 1.47-.54 2.07a9.42 9.42 0 0 1-.62 1.39 11.37 11.37 0 0 1-.65 1h5.13zm18.68-6.1a2.27 2.27 0 0 1 0 .46 1.86 1.86 0 0 1-.09.28c0 .08-.08.14-.14.17a.39.39 0 0 1-.2.06h-4.82v14.83a.53.53 0 0 1 0 .2c0 .06-.09.08-.2.11l-.34.09a2.92 2.92 0 0 1-.54 0 2.76 2.76 0 0 1-.54 0 2.5 2.5 0 0 1-.37-.09.49.49 0 0 1-.2-.11.4.4 0 0 1 0-.2V94.88h-4.89a.63.63 0 0 1-.2-.06.28.28 0 0 1-.12-.17.47.47 0 0 1-.08-.28 2.22 2.22 0 0 1-.06-.46 1.77 1.77 0 0 1 .06-.42.58.58 0 0 1 .08-.32.28.28 0 0 1 .12-.17 1 1 0 0 1 .2 0H71.6a.53.53 0 0 1 .2 0c.06 0 .09.09.14.17a2.23 2.23 0 0 1 .09.32 1.84 1.84 0 0 1 .03.42zm10.74 9.72a8.62 8.62 0 0 1-.37 2.67 5.94 5.94 0 0 1-1.16 2.13 5 5 0 0 1-1.9 1.36 6.44 6.44 0 0 1-2.64.51 6.35 6.35 0 0 1-2.55-.46 4.68 4.68 0 0 1-1.81-1.24 5.61 5.61 0 0 1-1.08-2 9 9 0 0 1-.37-2.72 9.77 9.77 0 0 1 .37-2.66 5.89 5.89 0 0 1 1.14-2.1 5.2 5.2 0 0 1 1.89-1.39 7.07 7.07 0 0 1 2.68-.49 7.18 7.18 0 0 1 2.55.42 4.92 4.92 0 0 1 1.81 1.28 5.27 5.27 0 0 1 1.08 2 8.71 8.71 0 0 1 .36 2.7zm-2.27.15a7.45 7.45 0 0 0-.2-1.85 5.17 5.17 0 0 0-.56-1.5 3.22 3.22 0 0 0-1.14-1A3.6 3.6 0 0 0 76.9 99a3.85 3.85 0 0 0-1.67.34 3.13 3.13 0 0 0-1.13 1 4.21 4.21 0 0 0-.68 1.5 7.78 7.78 0 0 0-.23 1.87 7.69 7.69 0 0 0 .2 1.84 4.1 4.1 0 0 0 .59 1.5 3.06 3.06 0 0 0 1.11 1 3.73 3.73 0 0 0 1.76.36 3.64 3.64 0 0 0 1.64-.34 2.93 2.93 0 0 0 1.16-1 4.19 4.19 0 0 0 .66-1.47 8.25 8.25 0 0 0 .22-1.82zm15.2 2.52a4 4 0 0 1-.34 1.67 3.24 3.24 0 0 1-1.08 1.22 4.84 4.84 0 0 1-1.73.77 10.41 10.41 0 0 1-2.44.25H88.5c-.26 0-.51 0-.77-.05a6.51 6.51 0 0 1-.73-.06 1.41 1.41 0 0 1-.77-.34 1.27 1.27 0 0 1-.26-.85V98.65a1.43 1.43 0 0 1 .23-.85 1.35 1.35 0 0 1 .77-.34c.22 0 .45 0 .73-.06s.51 0 .8-.06a8.34 8.34 0 0 0 .85 0h.88a10.29 10.29 0 0 1 2.21.2 4.88 4.88 0 0 1 1.56.63 2.65 2.65 0 0 1 .93 1 2.83 2.83 0 0 1 .29 1.33 2.73 2.73 0 0 1-.54 1.73 2.83 2.83 0 0 1-1.56 1 3.33 3.33 0 0 1 1.95 1.07 2.9 2.9 0 0 1 .66 2zm-2.61-5.53A1.7 1.7 0 0 0 93 100a1.47 1.47 0 0 0-.51-.57 2.89 2.89 0 0 0-1-.37 6.62 6.62 0 0 0-1.4-.06h-1.14c-.34 0-.62.05-.88.08v3.69h2.24a3.53 3.53 0 0 0 2.07-.51 1.71 1.71 0 0 0 .74-1.49zm.37 5.56a2.62 2.62 0 0 0-.17-.94 2 2 0 0 0-.6-.65 3.29 3.29 0 0 0-1-.4 7.48 7.48 0 0 0-1.47-.14h-2.18v4.23h1.08a3.63 3.63 0 0 0 .57 0 3.38 3.38 0 0 0 .54 0 5.47 5.47 0 0 0 1.44-.17 2.58 2.58 0 0 0 1-.43 2.05 2.05 0 0 0 .6-.71 2.52 2.52 0 0 0 .19-.78zm14.34 3.4a.37.37 0 0 1-.11.25.84.84 0 0 1-.29.12 2.76 2.76 0 0 1-.54 0 3 3 0 0 1-.56 0 .65.65 0 0 1-.33-.09.36.36 0 0 1-.08-.25v-1.19a5.86 5.86 0 0 1-1.76 1.3 4.46 4.46 0 0 1-2 .46 5.37 5.37 0 0 1-1.7-.26 3.46 3.46 0 0 1-1.31-.71 3.09 3.09 0 0 1-.82-1.13 3.8 3.8 0 0 1-.31-1.53 3.27 3.27 0 0 1 .43-1.73 3.22 3.22 0 0 1 1.16-1.25 6.29 6.29 0 0 1 1.87-.74 13.57 13.57 0 0 1 2.49-.22h1.65v-.94a4.26 4.26 0 0 0-.14-1.22 2.24 2.24 0 0 0-.46-.88 2.16 2.16 0 0 0-.85-.53 3.86 3.86 0 0 0-1.27-.17 4.36 4.36 0 0 0-1.42.19 5.34 5.34 0 0 0-1.14.43 7.74 7.74 0 0 0-.82.42.87.87 0 0 1-.45.2.53.53 0 0 1-.2 0c-.06 0-.08-.09-.14-.17a1.52 1.52 0 0 1-.09-.26 2.12 2.12 0 0 1 0-.37 2.17 2.17 0 0 1 0-.51.82.82 0 0 1 .23-.37 2.37 2.37 0 0 1 .59-.39 4.81 4.81 0 0 1 1-.43 8.08 8.08 0 0 1 1.25-.34 7.31 7.31 0 0 1 1.33-.11 7.06 7.06 0 0 1 2.19.28 3.65 3.65 0 0 1 1.44.85 3.28 3.28 0 0 1 .82 1.39 6.84 6.84 0 0 1 .26 2zm-2.18-5.44h-1.85a7.67 7.67 0 0 0-1.55.14 3.17 3.17 0 0 0-1.11.45 1.86 1.86 0 0 0-.62.71 2.06 2.06 0 0 0-.23 1 1.9 1.9 0 0 0 .6 1.48 2.28 2.28 0 0 0 1.64.57 2.91 2.91 0 0 0 1.59-.46 7 7 0 0 0 1.53-1.33zm17-.71a10.38 10.38 0 0 1-.34 2.8 5.81 5.81 0 0 1-1 2.1 4.39 4.39 0 0 1-1.62 1.33 5 5 0 0 1-2.21.49 3.24 3.24 0 0 1-1-.12 2.44 2.44 0 0 1-.88-.34 3.77 3.77 0 0 1-.85-.56c-.28-.23-.6-.49-.91-.8v6a.48.48 0 0 1 0 .2c0 .06-.09.09-.17.14a1 1 0 0 1-.34.06 2.86 2.86 0 0 1-.54 0 2.43 2.43 0 0 1-.51 0 .75.75 0 0 1-.34-.06c-.09 0-.17-.08-.2-.14a.38.38 0 0 1 0-.2V97.82a.36.36 0 0 1 0-.19.41.41 0 0 1 .17-.12l.31-.08h.91l.28.08a.41.41 0 0 1 .17.12.36.36 0 0 1 .06.19v1.59c.34-.37.71-.68 1-1a10 10 0 0 1 1-.68 4.94 4.94 0 0 1 1.05-.4 5 5 0 0 1 1.13-.14 4.29 4.29 0 0 1 3.69 1.87 6.46 6.46 0 0 1 .82 2 11.34 11.34 0 0 1 .35 2.52zm-2.26.25a8.27 8.27 0 0 0-.15-1.75 5.9 5.9 0 0 0-.45-1.54 3 3 0 0 0-.91-1 2.26 2.26 0 0 0-1.41-.4 3.05 3.05 0 0 0-.85.11 4.79 4.79 0 0 0-.83.4 5.16 5.16 0 0 0-.88.74 9.67 9.67 0 0 0-1 1.07v4.74a10.05 10.05 0 0 0 1.7 1.7 3 3 0 0 0 1.7.57 2.65 2.65 0 0 0 1.42-.4 3.18 3.18 0 0 0 .94-1 5.33 5.33 0 0 0 .54-1.5 8.17 8.17 0 0 0 .21-1.73zm19.47 5.9a.34.34 0 0 1 0 .17 1.15 1.15 0 0 1-.2.14.7.7 0 0 1-.31.06 2.92 2.92 0 0 1-.54 0 2.86 2.86 0 0 1-.54 0 1 1 0 0 1-.34-.06c-.08-.06-.14-.08-.17-.14a.55.55 0 0 1 0-.17v-11.9a.42.42 0 0 1 0-.17.66.66 0 0 1 .17-.14l.34-.08h1.08a1.46 1.46 0 0 1 .31.08l.2.14v.17zM128.1 102c.34 0 .65-.06 1-.06h1.08a8.6 8.6 0 0 1 2.41.29 4.21 4.21 0 0 1 1.64.82 2.84 2.84 0 0 1 1 1.25 4.32 4.32 0 0 1 .32 1.64 4.26 4.26 0 0 1-.34 1.7 3.39 3.39 0 0 1-1 1.39 5.84 5.84 0 0 1-1.78.91 9.08 9.08 0 0 1-2.61.34h-1.42c-.22 0-.45 0-.68-.06s-.45 0-.68-.05a1.39 1.39 0 0 1-.82-.37 1.3 1.3 0 0 1-.26-.88v-11.1s0-.14.06-.17a.66.66 0 0 1 .17-.14l.31-.08h.5a3.4 3.4 0 0 1 .88.08.34.34 0 0 1 .23.31zm5.13 4a2.86 2.86 0 0 0-.17-1 1.87 1.87 0 0 0-.54-.74 2.62 2.62 0 0 0-1-.48 6.21 6.21 0 0 0-1.53-.17h-1l-.9.06v4.59c.31 0 .62.08.9.08s.69.06 1.11.06a3.6 3.6 0 0 0 2.35-.65 2.21 2.21 0 0 0 .78-1.68z"/></symbol><symbol viewBox="0 0 240.38 41.95" id="logo--big" xmlns="http://www.w3.org/2000/svg"><path d="M0 42h4.71V4.73h32.57V42H42V0H0v42zm69.48-10a.56.56 0 0 1-.09.31 1 1 0 0 1-.37.23 4.31 4.31 0 0 1-.73.14h-2.24a3.68 3.68 0 0 1-.71-.14 1.24 1.24 0 0 1-.4-.23.45.45 0 0 1-.11-.31V13.44h-8.59v18.48a.45.45 0 0 1-.11.31.84.84 0 0 1-.37.23 4.23 4.23 0 0 1-.71.14h-2.27a4.23 4.23 0 0 1-.71-.14.84.84 0 0 1-.37-.23.68.68 0 0 1-.11-.31V11A1.51 1.51 0 0 1 52 9.89a1.34 1.34 0 0 1 1-.34h15.14a1.46 1.46 0 0 1 1 .34 1.67 1.67 0 0 1 .34 1.11zm20.69-8.17a14.54 14.54 0 0 1-.45 3.83 8.05 8.05 0 0 1-1.34 2.86 5.57 5.57 0 0 1-2.15 1.85 6.6 6.6 0 0 1-3 .62A6.39 6.39 0 0 1 82 32.8a4.92 4.92 0 0 1-1.11-.43 5 5 0 0 1-1.08-.68 8.47 8.47 0 0 1-1.1-1v7.45a.47.47 0 0 1-.12.34.61.61 0 0 1-.36.23 3.09 3.09 0 0 1-.68.14 9.75 9.75 0 0 1-2.16 0 3.09 3.09 0 0 1-.68-.14.76.76 0 0 1-.37-.23.51.51 0 0 1-.11-.34V16.07a.65.65 0 0 1 .08-.31.76.76 0 0 1 .32-.23 2.7 2.7 0 0 1 .59-.14 13.82 13.82 0 0 1 1.82 0 4 4 0 0 1 .59.14.61.61 0 0 1 .28.23.42.42 0 0 1 .12.31v1.87a10.25 10.25 0 0 1 1.37-1.24 7.48 7.48 0 0 1 1.33-.91 5.31 5.31 0 0 1 1.45-.54 6.9 6.9 0 0 1 1.56-.17 6.09 6.09 0 0 1 3 .68 5.65 5.65 0 0 1 2 1.87 9.08 9.08 0 0 1 1.13 2.75 15.78 15.78 0 0 1 .3 3.37zm-4.65.32a14.85 14.85 0 0 0-.14-1.93 5.74 5.74 0 0 0-.54-1.67 2.93 2.93 0 0 0-.93-1.14 2.37 2.37 0 0 0-1.48-.45 3.24 3.24 0 0 0-.88.14 3.36 3.36 0 0 0-.9.43 6.24 6.24 0 0 0-.91.79 7.39 7.39 0 0 0-1 1.19v5.22a11.35 11.35 0 0 0 1.78 1.81 2.93 2.93 0 0 0 1.76.65 2.41 2.41 0 0 0 1.5-.45 3.44 3.44 0 0 0 1-1.16 5.85 5.85 0 0 0 .56-1.62 8 8 0 0 0 .18-1.89zm24.24-.23a11.6 11.6 0 0 1-.54 3.68 7.32 7.32 0 0 1-1.62 2.87 6.73 6.73 0 0 1-2.72 1.87 9.86 9.86 0 0 1-3.8.65 11 11 0 0 1-3.68-.57 6.36 6.36 0 0 1-4.11-4.48 12.32 12.32 0 0 1-.51-3.71 11.6 11.6 0 0 1 .54-3.68A7.65 7.65 0 0 1 95 17.57a7.17 7.17 0 0 1 2.69-1.84 9.89 9.89 0 0 1 3.8-.65 10.39 10.39 0 0 1 3.72.57 6.23 6.23 0 0 1 2.57 1.7 6.89 6.89 0 0 1 1.54 2.75 13.48 13.48 0 0 1 .44 3.74zm-4.59.17a12.84 12.84 0 0 0-.17-2.15 5.42 5.42 0 0 0-.66-1.73 3.17 3.17 0 0 0-1.16-1.21 4.21 4.21 0 0 0-1.87-.39 3.9 3.9 0 0 0-1.76.36A3 3 0 0 0 98.33 20a5.15 5.15 0 0 0-.73 1.7 9 9 0 0 0-.23 2.3 12.88 12.88 0 0 0 .17 2.16 5.77 5.77 0 0 0 .65 1.73A3.08 3.08 0 0 0 99.38 29a3.9 3.9 0 0 0 1.85.4A4.28 4.28 0 0 0 103 29a3.44 3.44 0 0 0 1.23-1 5.12 5.12 0 0 0 .71-1.7 8.92 8.92 0 0 0 .23-2.3zm9.26 13.69a.44.44 0 0 1-.08.28.57.57 0 0 1-.31.17 2.16 2.16 0 0 1-.6.15h-1.84a2.26 2.26 0 0 1-.6-.15.41.41 0 0 1-.31-.17.37.37 0 0 1-.11-.28v-8.02a1 1 0 0 1 .2-.73 1 1 0 0 1 .68-.17h.85a12.16 12.16 0 0 0 2-4 34.15 34.15 0 0 0 .79-3.34c.23-1.31.46-2.84.69-4.65a2.78 2.78 0 0 1 .11-.6 1 1 0 0 1 .23-.42.67.67 0 0 1 .36-.26 1.66 1.66 0 0 1 .54-.08h9.81a1.22 1.22 0 0 1 .94.34 1.77 1.77 0 0 1 .28 1.07v12h1.81a1 1 0 0 1 .68.17 1 1 0 0 1 .2.73v7.88a.51.51 0 0 1-.08.28.57.57 0 0 1-.31.17 2.92 2.92 0 0 1-.6.15h-1.91a2.26 2.26 0 0 1-.6-.15.68.68 0 0 1-.25-.15.51.51 0 0 1-.08-.28v-5.21h-12.49zM123.56 19h-3.77c-.2 1.5-.42 2.78-.65 3.86a22.67 22.67 0 0 1-.77 2.75 8.78 8.78 0 0 1-.82 1.89 12.45 12.45 0 0 1-.85 1.34h6.86zm25.2-8.16a3.21 3.21 0 0 1 0 .56.91.91 0 0 1-.11.4c-.06.11-.11.2-.2.23a.49.49 0 0 1-.25.08h-6.5v19.95a.45.45 0 0 1 0 .25 1 1 0 0 1-.26.18c-.11 0-.28.08-.45.11a5.64 5.64 0 0 1-.77 0 5 5 0 0 1-.71 0c-.19 0-.36-.09-.48-.11a.9.9 0 0 1-.25-.18.39.39 0 0 1-.06-.25V12.13h-6.46a.52.52 0 0 1-.26-.08.46.46 0 0 1-.2-.23 3.93 3.93 0 0 1-.11-.4 3.21 3.21 0 0 1 0-.56 3.64 3.64 0 0 1 0-.6c0-.17.09-.31.11-.42a.58.58 0 0 1 .2-.23.42.42 0 0 1 .26-.06h16a.39.39 0 0 1 .25.06.51.51 0 0 1 .2.23 1.17 1.17 0 0 1 .11.42 3.64 3.64 0 0 1-.06.6zm14.54 13a12.19 12.19 0 0 1-.51 3.6 8.12 8.12 0 0 1-1.56 2.83 6.7 6.7 0 0 1-2.55 1.84 8.57 8.57 0 0 1-3.54.68 9 9 0 0 1-3.43-.59 6.42 6.42 0 0 1-2.44-1.7 7.49 7.49 0 0 1-1.47-2.72 12.91 12.91 0 0 1-.46-3.63 12.42 12.42 0 0 1 .49-3.57 7.85 7.85 0 0 1 1.53-2.84 6.77 6.77 0 0 1 2.55-1.87 10.2 10.2 0 0 1 7-.06 6.66 6.66 0 0 1 2.44 1.7 7.45 7.45 0 0 1 1.47 2.73 12.7 12.7 0 0 1 .48 3.66zm-3.06.19a11.33 11.33 0 0 0-.25-2.46 5.4 5.4 0 0 0-.8-2 3.65 3.65 0 0 0-1.47-1.39 4.89 4.89 0 0 0-2.35-.51 5 5 0 0 0-2.24.45 4.35 4.35 0 0 0-1.56 1.33 5.76 5.76 0 0 0-.88 2 9.94 9.94 0 0 0-.31 2.52 11.43 11.43 0 0 0 .25 2.47 5.54 5.54 0 0 0 .8 2 4 4 0 0 0 1.5 1.39 4.89 4.89 0 0 0 2.35.51 5.13 5.13 0 0 0 2.24-.48 4.25 4.25 0 0 0 1.53-1.28 5.69 5.69 0 0 0 .91-2 10.11 10.11 0 0 0 .28-2.49zm20.53 3.38a5.15 5.15 0 0 1-.49 2.27 4.33 4.33 0 0 1-1.41 1.64 6.82 6.82 0 0 1-2.36 1 13.66 13.66 0 0 1-3.26.34h-1.13c-.37 0-.74 0-1.08-.06s-.68 0-1 0l-1-.09a1.41 1.41 0 0 1-1.4-1.51V17.18a1.79 1.79 0 0 1 .31-1.11 1.48 1.48 0 0 1 1-.45 7.46 7.46 0 0 1 1-.11c.34 0 .68 0 1-.06s.77 0 1.17 0h1.19a13.11 13.11 0 0 1 3 .29 7.25 7.25 0 0 1 2.1.82 3.51 3.51 0 0 1 1.22 1.36 3.83 3.83 0 0 1 .4 1.81 3.81 3.81 0 0 1-.71 2.33 4.13 4.13 0 0 1-2.13 1.36 4.68 4.68 0 0 1 2.67 1.44 4.18 4.18 0 0 1 .91 2.61zm-3.55-7.4A2.35 2.35 0 0 0 177 19a1.57 1.57 0 0 0-.71-.76 3.34 3.34 0 0 0-1.27-.49 9 9 0 0 0-1.87-.17c-.57 0-1 0-1.53.06l-1.16.08v5h3a4.92 4.92 0 0 0 2.81-.68 2.24 2.24 0 0 0 .95-1.97zm.51 7.45a3.27 3.27 0 0 0-.22-1.24 2.48 2.48 0 0 0-.8-.91 4.74 4.74 0 0 0-1.39-.54 10.36 10.36 0 0 0-2-.17h-2.86v5.67l.7.09a6.42 6.42 0 0 1 .74 0h1.45a7.86 7.86 0 0 0 2-.23 3.31 3.31 0 0 0 1.36-.59 2.57 2.57 0 0 0 .8-.94 3.52 3.52 0 0 0 .22-1.08zm19.36 4.57a.46.46 0 0 1-.14.34 1.24 1.24 0 0 1-.4.14 4 4 0 0 1-.73.06 4.91 4.91 0 0 1-.74-.06 1.09 1.09 0 0 1-.4-.14.48.48 0 0 1-.11-.34V30.5a7.9 7.9 0 0 1-2.32 1.73 6.14 6.14 0 0 1-2.75.62 7.07 7.07 0 0 1-2.27-.34 5.1 5.1 0 0 1-1.76-.93 4.28 4.28 0 0 1-1.1-1.53A4.84 4.84 0 0 1 184 28a4.77 4.77 0 0 1 .54-2.35 4.61 4.61 0 0 1 1.55-1.65 8.51 8.51 0 0 1 2.53-1 15 15 0 0 1 3.34-.31h2.21v-1.26a5.5 5.5 0 0 0-.2-1.64 2.56 2.56 0 0 0-1.75-1.9 5 5 0 0 0-1.7-.23 6.79 6.79 0 0 0-1.93.25 11.89 11.89 0 0 0-1.5.57c-.46.23-.8.4-1.11.57a1.2 1.2 0 0 1-.62.28.38.38 0 0 1-.26-.08.55.55 0 0 1-.2-.2 1.79 1.79 0 0 1-.11-.37 2.42 2.42 0 0 1 0-.48 4 4 0 0 1 .06-.71 1 1 0 0 1 .31-.48 3.57 3.57 0 0 1 .82-.54 10.24 10.24 0 0 1 1.36-.6 11.33 11.33 0 0 1 1.65-.42 10.16 10.16 0 0 1 1.84-.17 9.67 9.67 0 0 1 2.92.4 4.78 4.78 0 0 1 2 1.16 4.25 4.25 0 0 1 1.07 1.87 8.84 8.84 0 0 1 .34 2.61zm-2.92-7.32h-2.49a9.42 9.42 0 0 0-2.1.2 4 4 0 0 0-1.47.63 2.15 2.15 0 0 0-.85.93 2.83 2.83 0 0 0-.29 1.31 2.53 2.53 0 0 0 .8 2 3.15 3.15 0 0 0 2.21.74 4 4 0 0 0 2.12-.6 8.68 8.68 0 0 0 2.07-1.78zm23-1a13.92 13.92 0 0 1-.45 3.77 8.13 8.13 0 0 1-1.33 2.84 6 6 0 0 1-2.19 1.81 6.87 6.87 0 0 1-2.94.62 5.85 5.85 0 0 1-1.31-.14 6.42 6.42 0 0 1-1.19-.45 6.87 6.87 0 0 1-1.13-.77 12.47 12.47 0 0 1-1.19-1.07v8a.32.32 0 0 1-.09.25.42.42 0 0 1-.23.2 3.9 3.9 0 0 1-.45.09 4.76 4.76 0 0 1-.74 0 4.49 4.49 0 0 1-.7 0l-.46-.09c-.11 0-.2-.11-.22-.2s-.06-.14-.06-.25V16.1a.43.43 0 0 1 .06-.28.23.23 0 0 1 .19-.14 1.57 1.57 0 0 1 .43-.12 3.39 3.39 0 0 1 .59 0 3.84 3.84 0 0 1 .63 0l.39.09a.62.62 0 0 1 .23.17.77.77 0 0 1 .06.28v2.13a16.51 16.51 0 0 1 1.39-1.31 11 11 0 0 1 1.36-.9 6.11 6.11 0 0 1 1.42-.54 5.09 5.09 0 0 1 1.5-.2 6 6 0 0 1 3 .68 5.73 5.73 0 0 1 2 1.84 8.23 8.23 0 0 1 1.1 2.72 13.72 13.72 0 0 1 .32 3.29zm-3.06.34a13.08 13.08 0 0 0-.2-2.35 6.25 6.25 0 0 0-.62-2 3.7 3.7 0 0 0-1.22-1.42 3.12 3.12 0 0 0-1.9-.54A3.86 3.86 0 0 0 209 18a4.9 4.9 0 0 0-1.11.54 6 6 0 0 0-1.19 1 13.84 13.84 0 0 0-1.3 1.45v6.31a13.42 13.42 0 0 0 2.26 2.27 4 4 0 0 0 2.3.76 3.08 3.08 0 0 0 1.87-.54 3.91 3.91 0 0 0 1.31-1.42 8.1 8.1 0 0 0 .7-2 11.13 11.13 0 0 0 .26-2.22zm26.28 7.94a.29.29 0 0 1-.09.22.71.71 0 0 1-.22.18 1.94 1.94 0 0 1-.46.11 4.74 4.74 0 0 1-.71 0 5.1 5.1 0 0 1-.73 0 1.94 1.94 0 0 1-.46-.11c-.11-.06-.2-.12-.22-.18a.28.28 0 0 1-.06-.22v-16c0-.11 0-.2.06-.25s.11-.12.22-.17a1.52 1.52 0 0 1 .46-.12 5.1 5.1 0 0 1 .73 0 4.74 4.74 0 0 1 .71 0 1.52 1.52 0 0 1 .46.12.58.58 0 0 1 .22.17.32.32 0 0 1 .09.25zM224.5 21.71l1.34-.08h1.44a11.47 11.47 0 0 1 3.23.4 6.49 6.49 0 0 1 2.24 1.07 4.45 4.45 0 0 1 1.28 1.7 5.6 5.6 0 0 1 .42 2.22 6.19 6.19 0 0 1-.45 2.29 4.52 4.52 0 0 1-1.36 1.84 6.67 6.67 0 0 1-2.38 1.22 11.52 11.52 0 0 1-3.52.46h-1.93c-.35 0-.59-.06-.9-.06l-.91-.08a1.69 1.69 0 0 1-1.11-.49 1.83 1.83 0 0 1-.34-1.19V16.1c0-.11 0-.2.06-.25a.44.44 0 0 1 .23-.17 1.37 1.37 0 0 1 .45-.12 4.38 4.38 0 0 1 .68 0 3.47 3.47 0 0 1 1.19.15.4.4 0 0 1 .31.42zm6.89 5.47a4 4 0 0 0-.22-1.33 2.46 2.46 0 0 0-.74-1 3.51 3.51 0 0 0-1.33-.62 7 7 0 0 0-2-.23h-1.34l-1.22.08v6.18c.43 0 .83.09 1.25.12s.88.05 1.45.05a4.86 4.86 0 0 0 3.17-.85 3 3 0 0 0 .98-2.4zM28 9.41H9.33V42H14V14.14h4.59V42h4.71V14.14H28V42h4.71V9.41H28z"/></symbol><symbol viewBox="0 0 48.27 48.27" id="logo--min" xmlns="http://www.w3.org/2000/svg"><path d="M0 48.27h5.41V5.44h37.45v42.83h5.41V0H0v48.27zm32.14-37.44H10.71v37.44h5.42v-32h5.3v32h5.41v-32h5.3v32h5.42V10.83h-5.42z"/></symbol><symbol viewBox="0 0 26 26" id="message" xmlns="http://www.w3.org/2000/svg"><path d="M23.23 4H2.77C1.795 4 1 4.844 1 5.88v14.24C1 21.155 1.794 22 2.77 22h20.46c.976 0 1.77-.844 1.77-1.88V5.88C25 4.845 24.206 4 23.23 4zm-7.563 9L23.5 7.347v11.306L15.667 13zm7.562-7.5c.054 0 .108.032.155.08L13 13.076 2.616 5.581c.047-.049.101-.081.155-.081h20.458zM2.5 18.653V7.347L10.333 13 2.5 18.653zm.27 1.847c-.053 0-.107-.032-.154-.08l8.998-6.495.948.683c.022.017.048.023.072.037a.745.745 0 0 0 .365.105h.002a.745.745 0 0 0 .365-.105c.024-.014.05-.02.072-.037l.947-.683 9 6.494c-.048.049-.102.081-.156.081H2.771z"/></symbol><symbol viewBox="0 0 410.23 410.23" id="search" xmlns="http://www.w3.org/2000/svg"><path d="M401.625 364.092l-107.1-107.1c19.125-26.775 30.6-59.288 30.6-93.713C325.125 73.391 252.45.717 162.563.717S0 73.392 0 163.279s72.675 162.562 162.562 162.562c34.425 0 66.938-11.475 93.713-30.6l107.1 107.1c9.562 9.562 26.775 9.562 38.25 0 11.475-11.474 11.475-26.775 0-38.249zm-239.063-76.5c-68.85 0-124.312-55.463-124.312-124.312 0-68.85 55.462-124.312 124.312-124.312S286.874 94.43 286.874 163.28c.001 68.849-55.462 124.312-124.312 124.312z"/></symbol><symbol viewBox="0 0 188.72 68" id="slogon" xmlns="http://www.w3.org/2000/svg"><path d="M107.13 10.74c-1.2.39-2.52 2.19-3.94 5.41q-2.23 5.07-1.77 7.21a.78.78 0 0 0 0 .18c.8-.27 2-2.11 3.74-5.52a24.3 24.3 0 0 0 1.68-4.32 6.68 6.68 0 0 0 .28-2.79v-.17m4.39-1.1c0 .11-.46 2.11-1.25 6-.7 3.43-1 5.48-.83 6.15.67-.34 1.55-1.5 2.62-3.48a.42.42 0 0 1 .41.05c.46.26 1.19.46 1.19.84-1.14 2.7-2.59 4.23-4.36 4.61a3 3 0 0 1-3.54-2.14 1.93 1.93 0 0 1 0-.27c-1.38 2.35-2.66 3.66-3.83 3.91A3.44 3.44 0 0 1 98 22.48q-.85-4 2.33-8.52t7.14-5.21c.68-.15 4.81-1.05 4.05.89zM90 29.83c-.61.6-1 1-1.26 1.31a16.56 16.56 0 0 0-2 3.24 5.24 5.24 0 0 0-.7 3 .78.78 0 0 0 0 .18c.76-.21 1.52-1.13 2.28-2.75A22.27 22.27 0 0 0 90 29.83zm2.4-15.94q-1.76.58-3.88 5.41c-1.49 3.37-2.08 5.78-1.78 7.21v.18q1.2-.42 3.74-5.53a24.59 24.59 0 0 0 1.63-4.31 6.52 6.52 0 0 0 .29-2.78.78.78 0 0 0 .02-.18zm4.17-1.05q-.53 2.87-1.54 8.88v-.1a3.18 3.18 0 0 1 1.85.89 16.65 16.65 0 0 1-2.54 3.08l-.13 1a22.83 22.83 0 0 1-2.68 7.74c-1.6 2.92-3.32 4.58-5.14 5a2.83 2.83 0 0 1-3.27-2 4.88 4.88 0 0 1 .69-3 15 15 0 0 1 2.57-3.63c.72-.79 2.08-2.14 4.1-4 .07-.5.14-1.06.23-1.69-1.28 2.09-2.46 3.26-3.54 3.49a3.44 3.44 0 0 1-3.93-2.83q-.87-4 2.33-8.52 3.12-4.35 7.14-5.21c1.16-.28 4.21-.68 3.88.9zm-18.41 3.53h-.11a3.4 3.4 0 0 0-1.75 1.18 8.27 8.27 0 0 0-1.48 2.66c-.65.32-1.78-.37-1.87-.55a10.21 10.21 0 0 1 1.82-3.09 5.13 5.13 0 0 1 2.32-1.66c1.75-.54 4.5-.21 4.46 2.16a9.49 9.49 0 0 1-.64 2.93c-.41 1.14-.84 2.29-1.3 3.43s-.86 2.23-1.24 3.23a5.89 5.89 0 0 0-.48 2.34 2.39 2.39 0 0 0 .65-.46 8.54 8.54 0 0 0 1-1.05q.51-.62 1-1.29a13.41 13.41 0 0 0 .76-1.2.5.5 0 0 1 .37.06c.09.05.39.22.66.39a.58.58 0 0 1 .28.07.46.46 0 0 1 .24.33 11.37 11.37 0 0 1-.9 1.61A14.43 14.43 0 0 1 80.84 29a6.37 6.37 0 0 1-1.27 1.1 2.09 2.09 0 0 1-1.22.41 5.3 5.3 0 0 1-3.35-1.2 2.5 2.5 0 0 1-.62-1.87 8.74 8.74 0 0 1 .62-2.58c.3-.95.66-1.86 1-2.86.3-.7.63-1.43 1-2.2a18.4 18.4 0 0 0 .89-2.07 3.14 3.14 0 0 0 .27-1.36zm-8.91 2.16c-.6.28-1.27 1.31-2 3.09a27.23 27.23 0 0 0-1.54 4.62 7.68 7.68 0 0 0 2.46-2.76 6.76 6.76 0 0 0 1.16-4.74zm2.93.55c.42 2-.33 4-2.28 6.07a11.59 11.59 0 0 1-4.58 3.14 7.09 7.09 0 0 0-.07 2.35 2 2 0 0 0 .37.84 3.09 3.09 0 0 0 .72-.06 5.74 5.74 0 0 0 2.84-1.9 9.83 9.83 0 0 0 1.67-2.46c.48-.41 1.62.38 1.76.71a10.58 10.58 0 0 1-1.68 2.61 7.34 7.34 0 0 1-3.87 2.45 4.17 4.17 0 0 1-5.2-3.18c-.51-2.34 0-4.92 1.53-7.75s3.19-4.43 5-4.82c1.48-.32 3.44.37 3.79 2zm-12.1 3a2.32 2.32 0 0 1-.29 1.9 2.19 2.19 0 0 1-3.85-.57 1.65 1.65 0 0 1 .45-1.37 3.69 3.69 0 0 0 .46-.69q-1.29.89-2.34 5.27c-.75 3.22-1 5.51-.68 6.88a1.52 1.52 0 0 0 .12.36 5 5 0 0 0 2.52-2.07 9.58 9.58 0 0 0 1.53-2.5c.36-.25 1.69.41 1.8.94A13.37 13.37 0 0 1 58.16 33a6.12 6.12 0 0 1-3.47 2.56c-2.44.53-4.24-1.37-4.72-3.61s0-4.69 1.43-7.47 3.07-4.39 4.92-4.78a3.21 3.21 0 0 1 3.76 2.4zm-20.25-2.45a6.52 6.52 0 0 1 4.68.69 5.34 5.34 0 0 1 1 .47 5.48 5.48 0 0 1 2.41 3.69q.87 4-2.16 8.82t-7.63 5.89c-2.81.6-6-.27-6.63-3.4a3.21 3.21 0 0 1 .3-2.19 2.21 2.21 0 0 1 1.54-1.26 2.91 2.91 0 0 1 3.36 2.14 2.39 2.39 0 0 1-.41 2 2.58 2.58 0 0 1-1.6 1.08c-.4.09-.58.21-.55.36A4.15 4.15 0 0 0 36 38c2.23-.47 4.19-2.06 5.89-4.75a10.45 10.45 0 0 0 1.71-8 4.73 4.73 0 0 0-2.13-3.2 5.05 5.05 0 0 0-2.87-.17 7.31 7.31 0 0 0-2.17.75c-.22.17-.42.35-.61.51-.86.19-.36-1.75-.47-2.28 0-.15.06-.3.28-.44A24.9 24.9 0 0 0 42 14.29q3.3-4.68 2.46-8.56c-.63-3-3.47-2.17-5.86-1.66q-7.4 1.59-16.17 8a59.47 59.47 0 0 0-14 14q-5.79 8.31-4.5 14.38c.79 3.65 4.27 3.67 7.31 3a19.17 19.17 0 0 0 9.68-5.61 29 29 0 0 0 5.87-8.71q.86-2 3.95-10.06a69.54 69.54 0 0 1 3.61-8.37C35 9.56 39.24 4 39.8 6.58a4.74 4.74 0 0 1-.69 1.06 14.47 14.47 0 0 0-1.51 2.71c-.73 2.39-1.48 4.79-2.23 7.21a66.68 66.68 0 0 1-4.24 10.75Q23.89 42.43 12.06 45C7.14 46 1.39 44.32.22 38.86Q-1 33 5 24.79a61.43 61.43 0 0 1 14.87-13.88q9.45-6.47 17.67-8.23c3.23-.69 10-1.4 11 3.09q.87 4-2.88 8.59a28.1 28.1 0 0 1-5.83 5.27zM179.23 32a3.77 3.77 0 0 1 .28-2.44c1.44-3.42 5.38-1.13 3.91 2.38a2.48 2.48 0 0 1-1.64 1.63 2.44 2.44 0 0 1-2.55-1.57zM188.72.65l-5.66 25.29-1.75-.39L184.81 1c.1-.45.5-.76 1.19-.95.5-.15 2.39.08 2.72.6zM166 30.54l.2-.47c.34-.82.7-1.7 1.07-2.64s.73-1.84 1.06-2.69.65-1.61.93-2.28c.59-1.38.44-1.51 1.71-2.18l.72-.37c.66-.31 1.74 0 1.87.48a2.85 2.85 0 0 1 0 .81c-.06.42-.14 1-.24 1.61s-.21 1.39-.34 2.2-.27 1.65-.38 2.53a31.12 31.12 0 0 0-.55 6.18 4.72 4.72 0 0 0 1.31-.91 4 4 0 0 1 1.35 1.07c.05.21-.06.44-.35.7a5.79 5.79 0 0 1-1 .71 9.83 9.83 0 0 1-1.14.55c-.36.15-.59.23-.68.26a2.69 2.69 0 0 1-3.07-1.72 4.21 4.21 0 0 1-.11-1.28l.55-4-.55 1.35c-.54 1.34-1 2.53-1.5 3.58a19.7 19.7 0 0 1-1.31 2.55q-.63 1-1.17 1.14c-3.89 1.06-2.25-3.91-1.87-5.94.28-1.51.51-2.89.69-4.13s.29-2.27.33-3.09a4.65 4.65 0 0 0 0-.67 2.8 2.8 0 0 0-1 1.18 13.8 13.8 0 0 0-1 2.8c-.27 1.09-.52 2.27-.76 3.55a27.28 27.28 0 0 1-.92 3.64 11.71 11.71 0 0 1-1.51 3.07A4.85 4.85 0 0 1 155.8 40a4.43 4.43 0 0 1-3.06-.8 3.1 3.1 0 0 1-1.33-1.87 2.29 2.29 0 0 1 .18-1.91 2.1 2.1 0 0 1 1.21-1 2.46 2.46 0 0 1 2.65 1.4 1.37 1.37 0 0 1-.1 1l-.48.93a2.09 2.09 0 0 0-.26.82 3.1 3.1 0 0 0 2-1.45 11.83 11.83 0 0 0 1.4-3.23c.35-1.26.66-2.59.92-4a28.72 28.72 0 0 1 1-3.87 8 8 0 0 1 1.54-2.82c1.17-1.31 3.66-1 4.32.35a5.46 5.46 0 0 1 .38 1 10.47 10.47 0 0 1 .15 3.59c-.09.74-.19 1.53-.32 2.4zm-19.38 0a4.91 4.91 0 0 0-.29-.81c-.36.3-.34 1.19.06 2.65a5.72 5.72 0 0 0 .36 1 8.19 8.19 0 0 0-.12-2.81zm-1.8 9.15a16.52 16.52 0 0 0 1.66-4.66 3.68 3.68 0 0 1-2.26-2.63 4.28 4.28 0 0 1 0-2.87l.09-.16a11.37 11.37 0 0 0-2.2 4.7c-.61 2.51-1.39 13.18 2.72 5.65zm6.18-5.23a2.43 2.43 0 0 1-1.51 1.23 2.1 2.1 0 0 1-.41.07 14.06 14.06 0 0 1-2.24 4.94 6.39 6.39 0 0 1-3.3 2.66 3.44 3.44 0 0 1-3.13-.36 3.3 3.3 0 0 1-2.22-2.63 11.29 11.29 0 0 1 1-8c1.36-2.83 3.27-4.59 5.74-5.25.38-.11 3.1.47 1.25 1.14a3.39 3.39 0 0 1 3 2.59 8.62 8.62 0 0 1 .22 3.08 3.57 3.57 0 0 0 .28-.35s1.32.52 1.32.88zm-24.4 22.31c.76-.24 1.48-1.2 2.16-2.89.37-.92 2.67-7 .13-3.6a16.92 16.92 0 0 0-1.8 3.34 5.18 5.18 0 0 0-.54 3zM131.7 33v-.14q-1.74.64-3.63 5.62-1.95 5.19-1.38 7.3a.58.58 0 0 0 0 .14c.78-.27 1.93-2.18 3.47-5.73a24.65 24.65 0 0 0 1.39-4.4 6.58 6.58 0 0 0 .15-2.79zm3 7.55a1 1 0 0 0 .07-.15 6.31 6.31 0 0 1 1.87.84 16 16 0 0 1-2.38 3.21l-.07 1a22.92 22.92 0 0 1-2.26 7.88c-1.44 3-3.07 4.75-4.87 5.24a2.85 2.85 0 0 1-3.35-1.84 5 5 0 0 1 .54-3 15 15 0 0 1 2.36-3.77q1-1.24 3.88-4.24c0-.5.09-1.06.14-1.69q-1.76 3.27-3.37 3.71a3.46 3.46 0 0 1-4-2.66q-1.08-4 1.86-8.63 2.89-4.51 6.85-5.59c6.42-1.86 3.29 4.45 2.69 9.67zm-18.25-3.11a6 6 0 0 0-.61-1h-.2a3.24 3.24 0 0 0-1.17 1 5.82 5.82 0 0 0-.82 1.61 7.85 7.85 0 0 0-.38 1.82 5 5 0 0 0 .14 1.75 1.75 1.75 0 0 0 .16.41 1.9 1.9 0 0 0 .4 0 5.9 5.9 0 0 0 1-.3 1.27 1.27 0 0 1 .78-.14c.08-.67.19-1.5.32-2.49s.2-1.9.34-2.68zm-4.15 10a17.34 17.34 0 0 1-1.21 2.6c-3.64 6.27 5-13.41 1.17-2.61zm.06-2.61c.12-.16.23-.33.35-.5l.1-.16a2.53 2.53 0 0 1-.59-.3l-.13-.09a2.6 2.6 0 0 1-.82-.37 2.65 2.65 0 0 1-1.12-1.56 4.13 4.13 0 0 1 0-2 5.88 5.88 0 0 1 .83-2 6.22 6.22 0 0 1 1.53-1.67 4.76 4.76 0 0 1 2-.92 3.6 3.6 0 0 1 1.19.09 1.44 1.44 0 0 1 .61.4 1.33 1.33 0 0 1 .3.06 2.42 2.42 0 0 1 .11-.35 2.2 2.2 0 0 0 .15-.59c.45-.13.89-.25 1.3-.38l1.26-.37s1.49.53 1.56.78a.76.76 0 0 1 0 .28c-.33 1.54-.62 3.06-.9 4.55s-.51 2.85-.71 4.07-.35 2.21-.44 3a10.18 10.18 0 0 0-.1 1.25 2.53 2.53 0 0 0 .42-.36q.42-.43.87-1a10.66 10.66 0 0 0 .84-1.2q.38-.63.63-1.14a.54.54 0 0 1 .37 0c.34.16 1.11.42 1.2.78a11.78 11.78 0 0 1-.77 1.61 10.46 10.46 0 0 1-1 1.46 6.48 6.48 0 0 1-1.17 1.12A3.72 3.72 0 0 1 119 50a3.11 3.11 0 0 1-3.78-2 8 8 0 0 1-.11-1.49 17.4 17.4 0 0 1 .13-2.2 2.56 2.56 0 0 0-1.07 1.16 21.15 21.15 0 0 0-1 2.43 16.4 16.4 0 0 1-1.21 2.6 4.91 4.91 0 0 1-2.38 2 4.08 4.08 0 0 1-3.06-.8 3.08 3.08 0 0 1-1.33-1.86 2.35 2.35 0 0 1 .18-1.92 2.1 2.1 0 0 1 1.21-1 2.46 2.46 0 0 1 2.65 1.4 1.53 1.53 0 0 1 0 .79 7.14 7.14 0 0 1-.31.81 7.71 7.71 0 0 0-.33.74.91.91 0 0 0-.09.54h.09a2.42 2.42 0 0 0 1.32-1.11 13.94 13.94 0 0 0 1.08-2 21.72 21.72 0 0 0 .8-2 6.08 6.08 0 0 1 .53-1.27zm-16.73 9.7a2.26 2.26 0 0 0 .63-.07q2.16-.6 3.42-5.77c.75-3.12.91-5.52.46-7.2a15 15 0 0 0-1.85 3.7Q97 48.55 96 52c-.11.82-.24 1.68-.37 2.53zm8.07-12.94q.84 3.1-.83 8c-1.2 3.52-2.77 5.55-4.69 6.07a4 4 0 0 1-2.74-.13q-.78 4.62-2.13 11.23a1.63 1.63 0 0 1-.53.74c-1.14 1.09-2.8.13-2.75-.72l3.26-22.37a1.35 1.35 0 0 0 0-.57 8.27 8.27 0 0 0-.68.9c-.36.27-1.93-.72-1.93-.73a4.05 4.05 0 0 1 2.82-2.79 2.71 2.71 0 0 1 3 1.92c0 .13.07.27.1.4q1.53-3.59 3.22-4a3.18 3.18 0 0 1 3.88 2.05z"/></symbol><symbol viewBox="0 0 56.693 56.693" id="social--fb" xmlns="http://www.w3.org/2000/svg"><path d="M40.43 21.739h-7.645v-5.014c0-1.883 1.248-2.322 2.127-2.322h5.395V6.125l-7.43-.029c-8.248 0-10.125 6.174-10.125 10.125v5.518h-4.77v8.53h4.77v24.137h10.033V30.269h6.77l.875-8.53z"/></symbol><symbol viewBox="0 0 169.06 169.06" id="social--inst" xmlns="http://www.w3.org/2000/svg"><path d="M122.41 0H46.65A46.71 46.71 0 0 0 0 46.65v75.76a46.71 46.71 0 0 0 46.65 46.65h75.76a46.71 46.71 0 0 0 46.65-46.65V46.65A46.71 46.71 0 0 0 122.41 0zm31.65 122.41a31.69 31.69 0 0 1-31.65 31.65H46.65A31.69 31.69 0 0 1 15 122.41V46.65A31.69 31.69 0 0 1 46.65 15h75.76a31.69 31.69 0 0 1 31.65 31.65v75.76z"/><path d="M84.53 41a43.56 43.56 0 1 0 43.56 43.56A43.61 43.61 0 0 0 84.53 41zm0 72.12a28.56 28.56 0 1 1 28.56-28.56 28.59 28.59 0 0 1-28.56 28.53zm45.39-84.87a11 11 0 1 0 7.78 3.22 11 11 0 0 0-7.78-3.22z"/></symbol><symbol viewBox="0 0 57.33 95.48" id="social--ok" xmlns="http://www.w3.org/2000/svg"><path d="M24 67.25c-7.4-.77-14.08-2.59-19.79-7.06-.71-.56-1.44-1.09-2.09-1.71-2.5-2.4-2.75-5.16-.77-8 1.65-2.42 4.5-3.07 7.45-1.67a10.4 10.4 0 0 1 1.64 1 32.47 32.47 0 0 0 36 .33 9.69 9.69 0 0 1 3.5-1.82 5.51 5.51 0 0 1 6.3 2.52c1.57 2.55 1.55 5-.38 7A29 29 0 0 1 45.4 64.6a49.38 49.38 0 0 1-11.88 2.67c.61.66.9 1 1.28 1.37 5.5 5.53 11 11 16.5 16.57a5.44 5.44 0 0 1 1.23 6.42 6.51 6.51 0 0 1-6.1 3.81 5.94 5.94 0 0 1-3.87-2c-4.15-4.18-8.37-8.28-12.44-12.53-1.18-1.24-1.75-1-2.8.07Q21 87.44 14.61 93.72a5.32 5.32 0 0 1-6.42 1.15 6.49 6.49 0 0 1-3.75-6 6 6 0 0 1 2-4q8.16-8.14 16.29-16.32c.38-.35.71-.74 1.27-1.3z"/><path d="M28.48 48.33a24.17 24.17 0 1 1 24.31-23.85 24.18 24.18 0 0 1-24.31 23.85zm12-24.19A11.82 11.82 0 1 0 28.73 36a11.79 11.79 0 0 0 11.75-11.86z"/></symbol><symbol viewBox="0 0 30 30" id="social--vk" xmlns="http://www.w3.org/2000/svg"><path clip-rule="evenodd" d="M16 24c1 0 1-1.441 1-2 0-1 1-2 2-2s2.715 1.715 4 3c1 1 1 1 2 1h3s2-.076 2-2c0-.625-.685-1.685-3-4-2-2-3.026-.967 0-5 1.843-2.456 3.184-4.681 2.954-5.323C29.734 7.064 24.608 6.088 24 7c-2 3-2.367 3.735-3 5-1 2-1.099 3-2 3-.909 0-1-1.941-1-3 0-3.306.479-5.644-1-6h-3c-1.61 0-3 1-3 1s-1.241.968-1 1c.298.04 2-.414 2 1v2s.009 4-1 4c-1 0-3-4-5-7-.785-1.177-1-1-2-1-1.072 0-1.999.042-3 .042-1 0-1.128.637-1 .958 2 5 3.437 8.14 7.237 12.096C10.722 23.725 13.05 23.918 15 24c.5.021 0 0 1 0z" fill-rule="evenodd"/></symbol><symbol viewBox="0 0 24 24" id="dwnld" xmlns="http://www.w3.org/2000/svg"><path d="M0.09922 -0.00401l0.69327 0 0.00784 0c0.13362,0.14769 0.26637,0.29442 0.39833,0.44025l0 0.00248 0 0.05953 0 0.05838 0 1.03268c0,0.055 -0.045,0.1 -0.1,0.1l-0.99944 0c-0.055,0 -0.1,-0.045 -0.1,-0.1l0 -1.49332c0,-0.055 0.045,-0.1 0.1,-0.1zm0.46044 0.70897l0.07717 0 0 0.63879 0.18851 -0.17576 0.05843 0.0441c0,0 -0.22821,0.25908 -0.27451,0.25908 -0.0463,0 -0.07662,-0.04244 -0.07662,-0.04244l-0.20781 -0.20782 0.04961 -0.05622 0.18522 0.17972 0 -0.63945zm0.24803 -0.58042l0 0.15687c0,0.08652 0.07079,0.15731 0.15732,0.15731l0.12696 0 -0.28428 -0.31418zm0.32279 0.37371l-0.19761 0c-0.10999,0 -0.2,-0.09 -0.2,-0.2l0 -0.20601 -0.57684 0c-0.04875,0 -0.08863,0.03989 -0.08863,0.08864l0 1.32354c0,0.04875 0.03988,0.08864 0.08863,0.08864l0.88582 0c0.04875,0 0.08863,-0.03989 0.08863,-0.08864l0 -1.00617z"/></symbol></svg>